<svg width="448" height="404" fill="none" xmlns="http://www.w3.org/2000/svg"><path d="M129 282.5l-77.5-76L123 152l42.5 9.5-36.5 121zm118-237l-7.5 62L292 171l50.5-44.5-35-87-60.5 6zM326 205l-28 3v81l74.5-4.5 8-50.5-11.5-26-43-3z" fill="#ECE9E4"/><path d="M211.656 345.247l-4.561 16.696-7.011 25.652-8.026 2.121-9.936-2.172-7.3-1.595-18.418.707-23.848 15.53-24.32 1.408-4.552-2.987-16.227-10.659-7.554-13.642 18.79-25.414 17.071-31.189 1.916-17.98 17.014.996 45.186 2.636 2.258.134 11.826 15.927 17.692 23.831z" fill="#D8A27D"/><path opacity=".3" d="M211.656 345.247l-4.562 16.696-7.01 25.652-8.026 2.121-17.237-3.767 12.546-35.145-7.487-45.449 2.257.134 29.519 39.758z" fill="#36312B"/><path d="M325.681 318.032l-12.645 17.057-110.037 18.857-17.993-12.145-.704-4.071-27.918-161.792-7.141-41.357 13.271-17.222 73.659-12.625 10.091 1.997 8.207-5.129 15.859-2.719 19.531 11.614 5.214 30.203 6.073 35.187.668 3.874 6.302 36.508.238 1.393 5.851 33.892.31 1.806 5.37 31.131 1.408 8.157-2.812 8.074 5.302 6.357 1.896 10.953z" fill="#36312B"/><path d="M316.795 314.523l-1.481 2.064-7.673 10.731-12.204 2.09-89.974 15.421-13.742-9.075-22.86-132.471-6.803-39.408-4.489-26.013 10.293-12.723 18.609-3.188 42.318-7.254 39.195-6.718 14.612 8.379 10.827 62.743 10.303 59.688 13.069 75.734z" fill="#F6F5F4"/><path opacity=".4" d="M156.384 175.938l24.635-12.46 10.744 1.909 6.638 8.317-4.442 22.825-16.067 13.796-7.549 19.358-13.959-53.745z" fill="#36312B"/><path d="M198.721 309.39l-4.758 12.026-3.283 8.302-13.115 9.534-5.763 4.195-16.895 3.616-23.678-4.715-1.651-1.073-17.77-11.511 3.955-10.055-4.111-47.683 9.315-42.787 6.312-21.395 9.63-11.526 12.334-24.972 8.326-8.946 10.945-10.52 12.116-2.445 10.635 3.843.725.263.715 1.951 4.08 11.149-9.04 24.213-14.995 15.416-4.044 20.003v.01l-.854 4.215 5.685 21.711 2.47 3.276.005.015 17.961 23.862 4.748 30.028z" fill="#D8A27D"/><path opacity=".4" d="M301.148 175.886h-3.495l-11.303-4.148-4.763-9.607 2.501-14.11 5.711-6.285 5.276-1.037 6.073 35.187z" fill="#36312B"/><path d="M325.494 152.272l-5.768 9.251-15.569 6.547-12.034.557-8.134-7.006-.761-3.328h-.005l-2.439-10.638 2.812-8.008 8.641-5.819 13.592-5.717 13.359 2.874 4.991 16.85 1.315 4.437z" fill="#D8A27D"/><path opacity=".4" d="M308.117 216.269l-11.137-.227-11.184-2.012-7.974-7.946.192-9.323 5.877-8.182 11.965-2.116 7.068-.294 5.193 30.1z" fill="#36312B"/><path d="M332.619 185.359l-.306 4.649-.44 6.697-11.531 8.848-22.942 2.6-11.355-.511-6.514-4.947h-.005l-2.449-1.863-2.185-9.039 2.087-10.329 15.083-9.21 14.746-1.976 9.035.222 11.246 3.276 5.53 11.583z" fill="#D8A27D"/><path opacity=".4" d="M314.207 251.554l-13.535-2.348-10.832-5.933-5.949-7.822 2.025-11.624 8.206-5.691 10.18-.593 4.054.119 5.851 33.892z" fill="#36312B"/><path d="M338.05 222.063l-2.387 9.704-2.009 8.157-11.272 3.885-21.472-1.078-11.474-4.566-3.521-3.617-3.339-3.431.585-11.779 7.456-6.645 10.024-1.826 16.419-1.527 14.047 3.059 6.943 9.664z" fill="#D8A27D"/><path opacity=".4" d="M319.887 284.491l-14.104-3.911-8.45-7.115-2.978-9.607 2.739-8.771 7.26-3.204 10.164 1.476 5.369 31.132z" fill="#36312B"/><path d="M339.221 263.461l-1.869 6.098-1.823 5.939-8.802 5.216-20.944-5.81-4.267-3.596-4.183-3.518-2.978-9.607 2.739-8.771 7.26-3.204 17.299 2.038 12.416 4.318 5.152 10.897z" fill="#D8A27D"/><path d="M278.78 279.651l-4.386 16.541-11.137 11.66-18.04 5.237-16.418-4.267-12.349-11.939-4.795-17.232 5.955-19.028 11.07-10.081 16.537-4.334 15.979 4.024 12.717 12.063 4.867 17.356z" fill="#B09C43"/><path d="M190.313 238.387l4.112-13.585 6.161-2.064 3.547-9.472 3.738-2.977 8.217 4.303 5.975-3.003.746-12.465 5.98-4.654 2.615-10.793 10.081-3.911 6.167 4.742 8.403 2.146 2.802-12.295v-10.282l5.975-7.26.932-17.433 4.111-8.559" stroke="#95853A" stroke-width="4.99" stroke-miterlimit="10"/><path d="M312.156 156.492l-8.834 4.014-4.225-2.946-3.878-10.138-1.097-2.879.989-5.644 8.962-1.826 3.64 5.36 2.263 3.338 2.18 10.721zm-7.358 42.839l-14.29 1.568-4.168-3.431-.435-13.615 2.951-5.098 11.655-.464 2.75 6.382 1.76 4.081-.223 10.577zm12.287 54.008l-.533 4.576-.498 4.298-4.561 8.115-9.258-1.836-1.087-4.236 1.993-9.927.451-2.11 5.369-2.198 8.124 3.318z" fill="#E8C3AB"/><path d="M246.714 304.55l-1.294-6.371-5.582-1.063-3.624-2.951-3.945.727-1.036-5.675 8.321-1.548.067.366.062-.046 2.589 3.735 5.763.392 5.017-2.254 1.258-4.025-1.035-1.929-1.875-1.068-2.335-.48-2.402-.206-6.126-.48-3.722-.661-3.107-1.496-2.294-2.481-1.331-3.648.037-3.684 1.491-3.261 2.879-2.682 4.173-1.997-1.217-6.3 6.535-1.191 1.222 6.335 5.177.888 3.884 2.461 3.35-.614 1.035 5.675-7.844 1.403-.047-.706-2.796-3.07-5.084-.429-5.287 2.183-1.294 3.57 1.035 2.1 1.787 1.032 2.19.418 2.242.186 6.125.711 4.204.785 3.299 1.424 2.335 2.306 1.294 3.4-.072 3.957-1.616 3.56-2.998 2.977-4.173 2.172 1.289 6.372-6.524 1.181z" fill="#F4F3F2"/><path d="M189.282 150.729l-1.864 5.815-2.071 2.435-5.079 5.964-11.754 4.453-6.477-1.455-1.947-.439-2.521-5.102 5.198-10.185.984-.825 6.425-5.376 7.192.428 1.636.098 10.278 4.189z" fill="#E8C3AB"/><path opacity=".3" d="M317.086 253.339l-.534 4.576-13.41-3.586.451-2.11 5.369-2.198 8.124 3.318zm-13.437-67.758l-17.646 1.362-.098-3.09 2.951-5.098 11.655-.464 3.138 7.29zm4.064-43.148l-12.494 4.989-1.097-2.879.989-5.644 8.962-1.826 3.64 5.36z" fill="#F6F5F4"/><path opacity=".4" d="M337.351 269.559l-1.823 5.939-8.802 5.216-20.944-5.809-4.266-3.597 10.645 2.745 12.183 1.615 8.559-2.182 4.448-3.927zm-2.179-35.79l-1.518 6.155-11.272 3.885-21.472-1.078-11.474-4.566-3.52-3.617 6.508 2.817 31.144 1.656 11.604-5.252z" fill="#36312B"/><path d="M307.636 226.401l-1.714 10.304-12.695-.723-1.222-2.713.642-12.496.046-.955 3.081-4.617 10.035 1.207.968 5.298.859 4.695z" fill="#E8C3AB"/><path opacity=".3" d="M306.777 221.706l-14.13-.933.047-.955 3.08-4.617 10.035 1.207.968 5.298z" fill="#F6F5F4"/><path opacity=".4" d="M332.314 190.007l-.441 6.697-11.53 8.849-22.943 2.6-11.355-.511-6.514-4.948 6.385 1.868h7.155l25.506-3.766 11.448-8.42 2.289-2.369zm-6.82-37.735l-5.768 9.251-15.57 6.547-12.033.557-8.134-7.006-.761-3.328 7.414 4.674 13.115.129 14.659-7.099 5.762-8.162 1.316 4.437zm-128.708 14.369l-9.041 24.213-14.995 15.416-4.898 24.228.658-29.279 11.712-11.211 11.044-21.381-1.439-15.875 2.164.789.715 1.951 4.08 11.149z" fill="#36312B"/><path d="M400.633 68.632l-8.22 24.523-20.743 18.479-30.198 6.899-29.443-9.285-19.268-20.182-7.94-32.225 9.043-29.203 19.423-19.133L346.308 0l32.204 11.184 18.994 23.072 4.013 20.193-.886 14.183z" fill="#75939E"/><path d="M384.893 60.745l10.284 6.924-7.446 22.061-18.79 16.623-27.354 6.207-26.671-8.353-17.454-18.156-7.192-28.99 8.191-26.271 17.594-17.212 29.912-7.651 29.172 10.06 17.205 20.756 3.635 18.167-11.086 5.835z" fill="#FDC5AB"/><path d="M305.001 93.888l6.131-10.277 8.848-4.314 23.544-3.43 13.25.541 17.671 5.68 9.041 11.403-14.545 12.862-27.354 6.207-26.67-8.353-9.916-10.319z" fill="#D47B53"/><path opacity=".2" d="M311.131 83.61l.59 4.304 8.43 4.824 15.688 3.57h19.003l18.893-6.346.71-7.873-17.672-5.68-13.25-.542-23.543 3.43-8.849 4.314z" fill="#F6F5F4"/><path opacity=".7" d="M326.566 78.338l.953 6.532 7.642 6.14 11.671.48 10.93-6.605 2.434-7.44-33.63.893z" fill="#36312B"/><path d="M324.401 55.472l-1.253 12.744 5.328 15.782 6.286 3.39 10.889.624 11.546-5.128 5.675-10.299 1.341-10.504-.802-8.869-39.01 2.26z" fill="#995F39"/><path opacity=".4" d="M323.831 61.266l3.971 1.543 12.453 1.738 14.741-1.166 9.113-2.466-.699-7.703-39.009 2.26-.57 5.794z" fill="#36312B"/><path d="M330.812 41.289l-6.017-4.329-6.855-1.367-6.809 3.054-2.076 7.997 5.385 8.307 11.272 4.788 10.127 1.47 9.082-.733 5.395-3.585 9.579-8.462-29.083-7.14z" fill="#BD8055"/><path d="M359.942 47.3l-5.463 5.164-10.034 2.446-10.646-2.652-5.307-6.243 1.569-5.985.688-2.646 1.606-8.018 3.272-2.24 9.403-.309 7.916-1.13 4.272 2.632.031.175.875 4.772.761 7.466.037.34 1.02 6.228z" fill="#BD8055"/><path d="M359.942 47.294l-4.779 5.077-12.127 1.636-11.344-2.43-3.2-5.562 1.061-4.06 4.603 3.023 8.834 1.666 8.641-1.073 5.432-1.042 2.112-1.935.218 1.404.549 3.296z" fill="#36312B"/><path d="M335.839 61.21l11.789-2.766 6.483-5.015 7.663-10.38 6.125-3.406 8.243 1.32 2.108 5.346-1.895 6.604-6.488 4.458-16.429 2.992-17.599.846z" fill="#995F39"/><path d="M352.652 32.054l-6.436 1.594-8.352-.34-4.701-1.78-.808-2.162 3.273-2.24 9.402-.309 7.917-1.13 4.272 2.632-4.567 3.735z" fill="#D8A27D"/><path d="M448 264.919l-13.478 24.616-20.188 12.353-26.472 1.359-23.463-11.979-13.301-19.558-1.994-27.925 11.885-22.953 19.166-13.082 29.081-2.293 25.522 13.957 12.652 21.921.59 23.584z" fill="#75939E"/><path d="M442.065 263.673l-11.826 21.767-17.713 10.922-23.227 1.203-20.587-10.593-11.67-17.294-1.01-14.178 12.406-4.612-13.146-5.902 10.428-20.297 16.817-11.567 25.516-2.028 22.394 12.341 11.101 19.384.517 20.854z" fill="#FDC5AB"/><path d="M367.351 284.95l3.257-6.8 5.929-5.283 19.737-2.456 10.744 2.312 13.628 7.135 5.592 8.054-13.711 8.451-23.227 1.202-20.587-10.592-1.362-2.023z" fill="#D2923F"/><path opacity=".2" d="M376.536 272.867l-1.025 2.27 3.63 5.577 10.293 5.304h13.877l10.07-3.472 3.179-3.137-.983-2.203-8.559-4.484-10.744-2.311-19.738 2.456z" fill="#F6F5F4"/><path opacity=".4" d="M383.34 272.02l-.404 2.647 4.189 4.391 9.465 2.038 9.863-3.849 2.004-3.772-1.439-.753-10.744-2.311-12.934 1.609z" fill="#36312B"/><path d="M383.391 248.51l-2.838 10.236 2.108 13.641 4.655 3.658 8.802 2.048 10.159-2.559 6.099-7.61 2.589-8.389.611-7.357-32.185-3.668z" fill="#D8A27D"/><path opacity=".4" d="M382.103 253.163l3.023 1.822 9.921 3.178 12.209 1.135 4.613-.176.508 8.802 2.589-8.389.611-7.357-32.185-3.668-1.289 4.653z" fill="#36312B"/><path d="M390.646 237.835l-4.298-4.385-5.405-2.085-5.991 1.533-2.837 6.237 3.215 7.543 8.528 5.505 8.061 2.631 7.518.687 4.919-2.167 9.025-5.562-22.735-9.937z" fill="#995F39"/><path d="M414.096 235.147l-.44 6.201-.021.284-.052 5.227-5.198 3.446-8.543.583-8.316-3.673-3.448-5.846 2.133-4.669.942-2.064 2.45-6.32 2.992-1.367 7.725 1.073 6.623.196 3.117 2.755.036 4.174z" fill="#995F39"/><path d="M391.919 254.814l10.019-.593 6.011-3.178 7.736-7.399 5.483-1.914 6.545 2.244.963 4.664-2.485 5.124-5.934 2.724-13.846.124-14.492-1.796z" fill="#6C4429"/><path d="M414.06 230.973l-4.262 2.404-5.483.392-6.772-1.455-3.589-2.12-.352-1.878 2.993-1.367 7.725 1.073 6.623.196 3.117 2.755z" fill="#BD8055"/><path d="M5.934 160.711l19.085 5.722-13.441 5.917 9.811 20.24 24.59 16.768 33.101 3.24 30.119-13.78 17.822-23.94 2.708-23.046-14.12-6.62 15.549-5.5-13.561-29.687-23.268-17.634-36.317-4.566-32.817 16.154-17.143 26.973-2.118 29.759z" fill="#FDC5AB"/><path d="M5.934 160.711l19.085 5.722-13.441 5.917 9.811 20.24 24.59 16.768 33.101 3.24 30.119-13.78 17.822-23.94 2.708-23.046-14.12-6.62 15.549-5.5-13.561-29.687-23.268-17.634-36.317-4.566-32.817 16.154-17.143 26.973-2.118 29.759z" fill="#FDC5AB"/><path d="M0 162.189l16.966 35.08 26.993 18.452 36.338 3.565 33.063-15.164 19.564-26.343 4.542-38.697-14.886-32.667L97.036 87.01l-39.867-5.025-36.025 17.776-18.82 29.681L0 162.189z" fill="#75939E"/><path d="M5.934 160.711l19.085 5.722-13.441 5.917 9.811 20.24 24.59 16.768 33.101 3.24 30.119-13.78 17.822-23.94 2.708-23.046-14.12-6.62 15.549-5.5-13.561-29.687-23.268-17.634-36.317-4.566-32.817 16.154-17.143 26.973-2.118 29.759z" fill="#FDC5AB"/><path d="M119.321 185.218l-8.74-11.18-11.054-3.762-28.204-.546-15.502 2.6-19.944 9.297-8.927 14.751 19.028 12.981 33.102 3.24 30.119-13.781 10.122-13.6z" fill="#8FA7B0"/><path opacity=".2" d="M35.877 181.627v5.417l6.985 6.31 15.538 4.902 21.519-2.142 18.728-9.864 7.968-9.782-2.257-4.551-4.83-1.641-28.204-.546-15.502 2.6-19.945 9.297z" fill="#F6F5F4"/><path opacity=".4" d="M91.635 170.122l-.145 7.826-8.072 8.353-13.659 2.291-13.84-6.15-3.976-8.389 39.692-3.931z" fill="#36312B"/><path d="M91.03 142.86l3.375 14.802-3.909 19.358-6.891 4.917-12.712 2.352-14.347-4.328-8.212-11.268-3.148-12.156-.378-10.551 46.221-3.126z" fill="#D8A27D"/><path opacity=".4" d="M92.303 149.634l-4.437 2.404-14.39 3.89-17.515.815-7.192-1.006-2.377 5.464-1.206-4.664-.378-10.551 45.962-3.085 1.533 6.733z" fill="#36312B"/><path d="M81.11 127.17l6.435-5.985 7.855-2.621 8.465 2.58 3.64 9.106-5.095 10.566-12.545 7.301-11.692 3.229-10.79.485-6.887-3.415-12.525-8.539L81.11 127.17z" fill="#BD8055"/><path d="M84.543 132.386l-5.308 8.131-12.126 4.7-12.167-1.393-7.198-5.267.264-7.471-.005-.408-.222-8.894.222-3.963.109-1.991 4.634-3.73 9.475.154 11.107-1.032 4.188 2.152 3.081 9.194 1.207 3.013 2.739 6.805z" fill="#BD8055"/><path d="M47.744 138.556l6.38 5.258 14.507.134 12.981-4.54 2.936-7.022-1.859-4.623-4.96 4.241-10.138 3.271-10.325.016-6.544-.413-2.78-1.966-.042 1.682-.156 3.962z" fill="#36312B"/><path d="M78.173 151.347l-14.28-1.502-8.377-4.942-10.563-11.072-7.71-3.101-9.501 2.776-1.678 6.599 3.21 7.486 8.3 4.287 19.77 1.084 20.83-1.615z" fill="#995F39"/><path d="M77.516 113.374l-.627 2.662-5.27 2.791-9.771 1.636-7.808-.919-6.038-1.723.11-1.991 4.633-3.73 9.476.154 11.106-1.032 4.189 2.152z" fill="#D8A27D"/><path opacity=".3" d="M189.283 150.729l-1.864 5.815-2.071 2.435-7.689-5.804-10.78-2.059-3.128.274 6.426-5.376 7.192.428 1.636.098 10.278 4.189z" fill="#F6F5F4"/><path d="M389.998 237.169l-2.91 6.367-.192-4.928-1.315-3.343-2.78-3.183 3.547 1.367 3.65 3.72z" fill="#995F39"/><path opacity=".2" d="M180.269 164.944l-11.754 4.452-8.424-1.893-2.522-5.103-8.325 8.946-12.334 24.972-9.63 11.526-6.312 21.395-9.315 42.787 4.111 47.683-17.07 31.183-18.79 25.415 7.553 13.641 17.952 11.789 20.825-41.889 11.945-31.178 5.493-41.62 6.302-18.863 4.556-29.269-6.053-26.998 8.424-21.004 6.851-3.73 12.261-9.344 3.909-8.998.347-3.9z" fill="#F6F5F4"/><path d="M396.792 255.418l6.369 3.498 2.729 4.385 1.066 5.098-2.827 7.672-2.516 3.064-.156 3.736 4.08 4.813 8.28 1.037 5.949-5.051.88-3.812.352-7.038v-8.998l-2.066-5.138-1.46-2.172-11.059.098-9.621-1.192zm-16.29-5.397l-4.131 7.894-1.719 9.23.305 7.13 1.579-1.408 6.084-.759-2.066-13.362 2.045-7.373-2.097-1.352z" fill="#36312B"/></svg>