<svg width="448" height="404" fill="none" xmlns="http://www.w3.org/2000/svg"><path d="M301.704 216.514l-7.953 6.157-8.366 1.183-8.816-3.32-5.905-7.267-.205-1.122-.523-2.893-.768-4.293.493-1.371.729-2.029 2.176-6.038 7.199-5.84 8.141-1.568 9.798 3.384 3.884 5.072 2.405 3.134.52 4.968.211 1.993.21 2.03-1.706 4.128-1.524 3.692z" fill="#E4A758"/><path opacity=".4" d="M303.228 212.823l-19.725 1.522-3.273-5.919-10.293.827-.769-4.293.493-1.372 14.39-1.238 2.186 4.015 18.276-1.694.211 1.994.21 2.03-1.706 4.128z" fill="#F6F5F4"/><path d="M271.708 243.718l3.195 9.509-1.657 8.25-6.074 7.182-8.843 3.137-1.134-.176-2.915-.469-4.324-.697-1.134-.918-1.683-1.357-4.996-4.045L239 255.44l1.217-8.167 6.462-8.085 6.094-1.965 3.769-1.223 4.878 1.156 1.962.459 1.993.475 3.34 2.971 2.993 2.657z" fill="#E4A758"/><path opacity=".4" d="M268.715 241.061l-5.105 19.038-6.695 1.115-2.635 9.936-4.324-.696-1.134-.918 3.609-13.926 4.531-.727 4.458-17.727 1.962.459 1.994.474 3.339 2.972z" fill="#F6F5F4"/></svg>