<svg width="448" height="404" fill="none" xmlns="http://www.w3.org/2000/svg"><path d="M311.687 235.025l-5.261 8.549-7.414 4.035-9.424-.026-8.098-4.741-.59-.981-1.512-2.523-2.242-3.75-.021-1.455-.036-2.157-.104-6.413 4.671-7.987 7.062-4.313 10.366-.263 5.431 3.39 3.361 2.094 2.247 4.468.901 1.796.916 1.826-.134 4.463-.119 3.988z" fill="#E4A758"/><path opacity=".4" d="M311.806 231.037l-17.925 8.327-5.157-4.401-9.336 4.375-2.242-3.751-.021-1.455 13.028-6.191 3.469 2.993 16.501-7.982.901 1.795.917 1.827-.135 4.463z" fill="#F6F5F4"/><path d="M248.508 256.39l9.879 1.92 6.384 5.505 3.278 8.801-1.616 9.22-.714.893-1.843 2.296-2.745 3.405-1.356.531-2.014.79-5.996 2.337-9.139-1.558-6.534-5.082-3.873-9.586 1.284-6.253.792-3.87 3.412-3.663 1.372-1.471 1.398-1.491 4.241-1.439 3.79-1.285z" fill="#E4A758"/><path opacity=".4" d="M244.718 257.675l14.104 13.816-2.33 6.352 7.383 7.181-2.744 3.405-1.356.532-10.382-9.989 1.6-4.287-13.286-12.609 1.372-1.471 1.398-1.491 4.241-1.439z" fill="#F6F5F4"/><path d="M197.713 255.936l3.19 9.509-1.657 8.25-6.074 7.182-8.843 3.142-1.134-.181-2.915-.464-4.319-.702-1.139-.918-1.677-1.357-5.002-4.04-3.143-8.699 1.217-8.167 6.462-8.079 6.094-1.971 3.769-1.223 4.883 1.156 1.957.464 1.993.475 3.345 2.966 2.993 2.657z" fill="#E4A758"/><path opacity=".4" d="M194.721 253.279l-5.11 19.038-6.695 1.114-2.635 9.942-4.319-.701-1.139-.919 3.609-13.925 4.531-.722 4.463-17.733 1.957.465 1.994.474 3.344 2.967z" fill="#F6F5F4"/></svg>