<svg width="448" height="404" fill="none" xmlns="http://www.w3.org/2000/svg"><path d="M290.062 148.366l3.189 9.509-1.657 8.249-6.073 7.182-8.844 3.137-1.134-.175-2.915-.47-4.323-.696-1.134-.919-1.683-1.357-4.996-4.044-3.143-8.694 1.216-8.167 6.462-8.085 6.094-1.966 3.77-1.222 4.882 1.155 1.958.465 1.993.474 3.345 2.967 2.993 2.657z" fill="#E4A758"/><path opacity=".4" d="M287.07 145.709l-5.11 19.038-6.695 1.114-2.636 9.937-4.323-.696-1.134-.919 3.609-13.925 4.53-.722 4.464-17.733 1.957.465 1.993.474 3.345 2.967z" fill="#F6F5F4"/><path d="M233.713 133.713l3.19 9.509-1.657 8.25-6.074 7.182-8.843 3.142-1.134-.181-2.915-.464-4.324-.702-1.134-.918-1.677-1.357-5.002-4.04-3.143-8.699 1.217-8.162 6.462-8.085 6.094-1.97 3.769-1.218 4.883 1.156 1.957.459 1.993.475 3.345 2.971 2.993 2.652z" fill="#E4A758"/><path opacity=".4" d="M230.72 131.062l-5.11 19.032-6.695 1.115-2.635 9.942-4.324-.702-1.134-.918 3.609-13.925 4.531-.723 4.463-17.727 1.957.459 1.994.475 3.344 2.972z" fill="#F6F5F4"/></svg>