<svg width="448" height="443" fill="none" xmlns="http://www.w3.org/2000/svg"><g clip-path="url(#clip0_578_12674)"><path d="M186.677 382.856h-15.434v12.452h15.434v-12.452z" fill="#536B75"/><path d="M206.004 424.115h-54.016v14.136h54.016v-14.136z" fill="#E4A758"/><path d="M201.841 424.115h-16.009v14.136h16.009v-14.136z" fill="#F4C889"/><path d="M172.182 424.115h-20.194v14.136h20.194v-14.136z" fill="#BC7E2C"/><path d="M206.004 424.115h-54.016v2.921h54.016v-2.921z" fill="#D2923F"/><path d="M203.243 409.974h-54.017v14.136h54.017v-14.136z" fill="#E4A758"/><path d="M199.08 409.974h-16.009v14.136h16.009v-14.136z" fill="#F4C889"/><path d="M169.42 409.974h-20.194v14.136h20.194v-14.136z" fill="#BC7E2C"/><path d="M203.243 409.974h-54.017v2.921h54.017v-2.921z" fill="#D2923F"/><path d="M204.9 395.838h-54.017v14.136H204.9v-14.136z" fill="#E4A758"/><path d="M200.736 395.838h-16.008v14.136h16.008v-14.136z" fill="#F4C889"/><path d="M171.077 395.838h-20.194v14.136h20.194v-14.136z" fill="#BC7E2C"/><path d="M204.9 395.838h-54.017v2.921H204.9v-2.921z" fill="#D2923F"/><path d="M206.556 381.702H152.54v14.136h54.016v-14.136z" fill="#E4A758"/><path d="M202.392 381.702h-16.008v14.136h16.008v-14.136z" fill="#F4C889"/><path d="M172.734 381.702H152.54v14.136h20.194v-14.136z" fill="#BC7E2C"/><path d="M206.556 381.702H152.54v2.921h54.016v-2.921z" fill="#D2923F"/><path d="M208.212 367.566h-54.016v14.136h54.016v-14.136z" fill="#E4A758"/><path d="M204.049 367.566h-16.008v14.136h16.008v-14.136z" fill="#F4C889"/><path d="M174.39 367.566h-20.194v14.136h20.194v-14.136z" fill="#BC7E2C"/><path d="M416.85 382.856h-47.853v12.452h47.853v-12.452z" fill="#8FA7B0"/><path d="M384.431 382.856h-15.434v12.452h15.434v-12.452z" fill="#536B75"/><path d="M118.248 424.115H64.232v14.136h54.016v-14.136z" fill="#E4A758"/><path d="M114.084 424.115H98.076v14.136h16.008v-14.136z" fill="#F4C889"/><path d="M84.426 424.115H64.232v14.136h20.194v-14.136z" fill="#BC7E2C"/><path d="M118.248 424.115H64.232v2.921h54.016v-2.921z" fill="#D2923F"/><path d="M116.591 409.974H62.575v14.136h54.016v-14.136z" fill="#E4A758"/><path d="M112.428 409.974H96.42v14.136h16.008v-14.136z" fill="#F4C889"/><path d="M82.77 409.974H62.574v14.136H82.77v-14.136z" fill="#BC7E2C"/><path d="M116.591 409.974H62.575v2.921h54.016v-2.921z" fill="#D2923F"/><path d="M118.248 395.838H64.232v14.136h54.016v-14.136z" fill="#E4A758"/><path d="M114.084 395.838H98.076v14.136h16.008v-14.136z" fill="#F4C889"/><path d="M84.426 395.838H64.232v14.136h20.194v-14.136z" fill="#BC7E2C"/><path d="M118.248 395.838H64.232v2.921h54.016v-2.921z" fill="#D2923F"/><path d="M119.905 381.702H65.889v14.136h54.016v-14.136z" fill="#E4A758"/><path d="M115.741 381.702H99.733v14.136h16.008v-14.136z" fill="#F4C889"/><path d="M86.083 381.702H65.89v14.136h20.194v-14.136z" fill="#BC7E2C"/><path d="M119.905 381.702H65.889v2.921h54.016v-2.921z" fill="#D2923F"/><path d="M117.144 367.566H63.128v14.136h54.016v-14.136z" fill="#E4A758"/><path d="M112.98 367.566H96.972v14.136h16.008v-14.136z" fill="#F4C889"/><path d="M83.322 367.566H63.128v14.136h20.194v-14.136z" fill="#BC7E2C"/><path d="M117.144 367.566H63.128v2.921h54.016v-2.921z" fill="#D2923F"/><path d="M114.935 353.43H60.918v14.136h54.017V353.43z" fill="#E4A758"/><path d="M110.771 353.43H94.763v14.136h16.008V353.43z" fill="#F4C889"/><path d="M81.112 353.43H60.92v14.136h20.193V353.43z" fill="#BC7E2C"/><path d="M160.773 414.728h-54.016v14.136h54.016v-14.136z" fill="#E4A758"/><path d="M156.61 414.728h-16.008v14.136h16.008v-14.136z" fill="#F4C889"/><path d="M126.951 414.728h-20.194v14.136h20.194v-14.136z" fill="#BC7E2C"/><path d="M160.773 414.728h-54.016v2.921h54.016v-2.921z" fill="#D2923F"/><path d="M162.43 428.864h-54.016V443h54.016v-14.136z" fill="#E4A758"/><path d="M158.266 428.864h-16.009V443h16.009v-14.136z" fill="#F4C889"/><path d="M128.608 428.864h-20.194V443h20.194v-14.136z" fill="#BC7E2C"/><path d="M162.43 428.864h-54.016v2.921h54.016v-2.921z" fill="#D2923F"/><path d="M245.276 414.728H191.26v14.136h54.016v-14.136z" fill="#E4A758"/><path d="M241.113 414.728h-16.008v14.136h16.008v-14.136z" fill="#F4C889"/><path d="M211.454 414.728H191.26v14.136h20.194v-14.136z" fill="#BC7E2C"/><path d="M246.933 428.864h-54.016V443h54.016v-14.136z" fill="#E4A758"/><path d="M242.77 428.864h-16.009V443h16.009v-14.136z" fill="#F4C889"/><path d="M213.111 428.864h-20.194V443h20.194v-14.136z" fill="#BC7E2C"/><path d="M246.933 428.864h-54.016v2.921h54.016v-2.921z" fill="#D2923F"/><path d="M88.755 414.728H34.739v14.136h54.016v-14.136z" fill="#E4A758"/><path d="M84.592 414.728H68.584v14.136h16.008v-14.136z" fill="#F4C889"/><path d="M54.933 414.728H34.739v14.136h20.194v-14.136z" fill="#BC7E2C"/><path d="M88.755 414.728H34.739v2.921h54.016v-2.921z" fill="#D2923F"/><path d="M90.412 428.864H36.396V443h54.016v-14.136z" fill="#E4A758"/><path d="M86.248 428.864H70.24V443h16.008v-14.136z" fill="#F4C889"/><path d="M56.59 428.864H36.396V443H56.59v-14.136z" fill="#BC7E2C"/><path d="M90.412 428.864H36.396v2.921h54.016v-2.921z" fill="#D2923F"/><path d="M90.412 400.587H36.396v14.136h54.016v-14.136z" fill="#E4A758"/><path d="M86.248 400.587H70.24v14.136h16.008v-14.136z" fill="#F4C889"/><path d="M56.59 400.587H36.396v14.136H56.59v-14.136z" fill="#BC7E2C"/><path d="M162.43 400.587h-54.016v14.136h54.016v-14.136z" fill="#E4A758"/><path d="M158.266 400.587h-16.009v14.136h16.009v-14.136z" fill="#F4C889"/><path d="M128.608 400.587h-20.194v14.136h20.194v-14.136z" fill="#BC7E2C"/><path d="M162.43 400.587h-54.016v2.921h54.016v-2.921z" fill="#D2923F"/><path d="M159.117 386.451h-54.016v14.136h54.016v-14.136z" fill="#E4A758"/><path d="M154.953 386.451h-16.008v14.136h16.008v-14.136z" fill="#F4C889"/><path d="M125.295 386.451h-20.194v14.136h20.194v-14.136z" fill="#BC7E2C"/><path d="M159.117 386.451h-54.016v2.921h54.016v-2.921z" fill="#D2923F"/><path d="M157.46 372.315h-54.016v14.136h54.016v-14.136z" fill="#E4A758"/><path d="M153.296 372.315h-16.008v14.136h16.008v-14.136z" fill="#F4C889"/><path d="M123.638 372.315h-20.194v14.136h20.194v-14.136z" fill="#BC7E2C"/><path d="M157.46 372.315h-54.016v2.921h54.016v-2.921z" fill="#D2923F"/><path d="M160.773 358.179h-54.016v14.136h54.016v-14.136z" fill="#E4A758"/><path d="M156.61 358.179h-16.008v14.136h16.008v-14.136z" fill="#F4C889"/><path d="M126.951 358.179h-20.194v14.136h20.194v-14.136z" fill="#BC7E2C"/><path d="M160.773 358.179h-54.016v2.921h54.016v-2.921z" fill="#D2923F"/><path d="M162.43 344.043h-54.016v14.136h54.016v-14.136z" fill="#E4A758"/><path d="M158.266 344.043h-16.009v14.136h16.009v-14.136z" fill="#F4C889"/><path d="M128.608 344.043h-20.194v14.136h20.194v-14.136z" fill="#BC7E2C"/><path d="M162.43 344.043h-54.016v2.921h54.016v-2.921z" fill="#D2923F"/><path d="M164.087 329.907H110.07v14.136h54.017v-14.136z" fill="#E4A758"/><path d="M159.923 329.907h-16.009v14.136h16.009v-14.136z" fill="#F4C889"/><path d="M130.264 329.907H110.07v14.136h20.194v-14.136z" fill="#BC7E2C"/><path d="M164.087 329.907H110.07v2.921h54.017v-2.921z" fill="#D2923F"/><path d="M160.773 315.771h-54.016v14.136h54.016v-14.136z" fill="#E4A758"/><path d="M156.61 315.771h-16.008v14.136h16.008v-14.136z" fill="#F4C889"/><path d="M126.951 315.771h-20.194v14.136h20.194v-14.136z" fill="#BC7E2C"/><path d="M160.773 315.771h-54.016v2.921h54.016v-2.921z" fill="#D2923F"/><path d="M162.43 301.63h-54.016v14.136h54.016V301.63z" fill="#E4A758"/><path d="M158.266 301.63h-16.009v14.136h16.009V301.63z" fill="#F4C889"/><path d="M128.608 301.63h-20.194v14.136h20.194V301.63z" fill="#BC7E2C"/><path d="M149.928 274.628c0 12.7-7.67 27.007-7.67 27.007h-13.087c-5.368 0-10.255-2.65-13.938-6.996l.287-6.427-5.472-3.004a33.993 33.993 0 01-1.657-10.58 34.76 34.76 0 01.74-7.178l1.756-2.06-.309-2.855c3.407-8.835 10.442-14.909 18.57-14.909h12.502s8.278 13.584 8.278 27.002z" fill="#BC7E2C"/><path d="M162.429 274.628a33.68 33.68 0 01-2.208 12.148 26.098 26.098 0 01-7.102 10.381 17.467 17.467 0 01-11.447 4.479c-10.74 0-19.575-10.613-20.647-24.219l1.105-2.397-1.16-2.208a33.353 33.353 0 011.657-8.918 27.009 27.009 0 016.626-10.906c3.457-3.357 7.731-5.339 12.386-5.339 4.799 0 9.222 2.12 12.734 5.676l.955 5.721 4.55 2.589a33.445 33.445 0 012.551 12.993z" fill="#E4A758"/><path d="M155.461 274.628c.013 3-.453 5.982-1.381 8.835-1.524 4.578-4.191 8.183-7.46 10.022a9.992 9.992 0 01-4.97 1.342c-7.615 0-13.805-9.034-13.805-20.182 0-.553 0-1.05.044-1.569.276-5.267 1.933-9.972 4.418-13.329 2.485-3.358 5.721-5.29 9.305-5.29 7.675-.017 13.849 9.022 13.849 20.171z" fill="#D2923F"/><path d="M154.081 283.447c-1.524 4.577-4.192 8.183-7.461 10.022l-18.692-20.431c.277-5.268 1.933-9.972 4.418-13.33l21.735 23.739z" fill="#E4A758"/><path d="M141.673 254.44a9.29 9.29 0 00-1.105.072c7.096.823 12.701 9.509 12.701 20.116 0 10.608-5.588 19.288-12.701 20.111.367.046.736.07 1.105.072 7.615 0 13.805-9.04 13.805-20.183s-6.19-20.188-13.805-20.188z" fill="#BC7E2C"/><path d="M133.881 257.975l-4.594-5.014a26.996 26.996 0 00-6.627 10.905l5.611 6.135c.778-4.964 2.822-9.227 5.61-12.026zm20.894 22.843c-1.06 4.815-3.313 8.835-6.273 11.32l4.595 5.019a26.095 26.095 0 007.107-10.408l-5.429-5.931z" fill="#F4C889"/><path d="M402.72 424.115h-54.016v14.136h54.016v-14.136z" fill="#E4A758"/><path d="M398.555 424.115h-16.008v14.136h16.008v-14.136z" fill="#F4C889"/><path d="M368.898 424.115h-20.194v14.136h20.194v-14.136z" fill="#BC7E2C"/><path d="M402.72 424.115h-54.016v2.921h54.016v-2.921z" fill="#D2923F"/><path d="M399.959 409.974h-54.016v14.136h54.016v-14.136z" fill="#E4A758"/><path d="M395.795 409.974h-16.008v14.136h16.008v-14.136z" fill="#F4C889"/><path d="M366.137 409.974h-20.194v14.136h20.194v-14.136z" fill="#BC7E2C"/><path d="M399.959 409.974h-54.016v2.921h54.016v-2.921z" fill="#D2923F"/><path d="M403.825 395.838h-54.017v14.136h54.017v-14.136z" fill="#E4A758"/><path d="M399.66 395.838h-16.008v14.136h16.008v-14.136z" fill="#F4C889"/><path d="M370.002 395.838h-20.194v14.136h20.194v-14.136z" fill="#BC7E2C"/><path d="M403.825 395.838h-54.017v2.921h54.017v-2.921z" fill="#D2923F"/><path d="M401.063 381.702h-54.016v14.136h54.016v-14.136z" fill="#E4A758"/><path d="M396.899 381.702h-16.008v14.136h16.008v-14.136z" fill="#F4C889"/><path d="M367.241 381.702h-20.194v14.136h20.194v-14.136z" fill="#BC7E2C"/><path d="M401.063 381.702h-54.016v2.921h54.016v-2.921z" fill="#D2923F"/><path d="M406.033 367.566h-54.016v14.136h54.016v-14.136z" fill="#E4A758"/><path d="M401.869 367.566h-16.008v14.136h16.008v-14.136z" fill="#F4C889"/><path d="M372.211 367.566h-20.194v14.136h20.194v-14.136z" fill="#BC7E2C"/><path d="M406.033 367.566h-54.016v2.921h54.016v-2.921z" fill="#D2923F"/><path d="M403.825 353.43h-54.017v14.136h54.017V353.43z" fill="#E4A758"/><path d="M399.66 353.43h-16.008v14.136h16.008V353.43z" fill="#F4C889"/><path d="M370.002 353.43h-20.194v14.136h20.194V353.43z" fill="#BC7E2C"/><path d="M403.825 353.43h-54.017v2.921h54.017v-2.921z" fill="#D2923F"/><path d="M406.033 339.294h-54.016v14.136h54.016v-14.136z" fill="#E4A758"/><path d="M401.869 339.294h-16.008v14.136h16.008v-14.136z" fill="#F4C889"/><path d="M372.211 339.294h-20.194v14.136h20.194v-14.136z" fill="#BC7E2C"/><path d="M445.792 428.864h-54.017V443h54.017v-14.136z" fill="#E4A758"/><path d="M441.627 428.864h-16.008V443h16.008v-14.136z" fill="#F4C889"/><path d="M411.969 428.864h-20.194V443h20.194v-14.136z" fill="#BC7E2C"/><path d="M445.792 428.864h-54.017v2.921h54.017v-2.921z" fill="#D2923F"/><path d="M444.135 414.728h-54.017v14.136h54.017v-14.136z" fill="#E4A758"/><path d="M439.97 414.728h-16.008v14.136h16.008v-14.136z" fill="#F4C889"/><path d="M410.312 414.728h-20.194v14.136h20.194v-14.136z" fill="#BC7E2C"/><path d="M444.135 414.728h-54.017v2.921h54.017v-2.921z" fill="#D2923F"/><path d="M445.792 400.587h-54.017v14.136h54.017v-14.136z" fill="#E4A758"/><path d="M441.627 400.587h-16.008v14.136h16.008v-14.136z" fill="#F4C889"/><path d="M411.969 400.587h-20.194v14.136h20.194v-14.136z" fill="#BC7E2C"/><path d="M445.792 400.587h-54.017v2.921h54.017v-2.921z" fill="#D2923F"/><path d="M447.448 386.451h-54.016v14.136h54.016v-14.136z" fill="#E4A758"/><path d="M443.284 386.451h-16.008v14.136h16.008v-14.136z" fill="#F4C889"/><path d="M413.626 386.451h-20.194v14.136h20.194v-14.136z" fill="#BC7E2C"/><path d="M447.448 386.451h-54.016v2.921h54.016v-2.921z" fill="#D2923F"/><path d="M444.687 372.315h-54.016v14.136h54.016v-14.136z" fill="#E4A758"/><path d="M440.523 372.315h-16.008v14.136h16.008v-14.136z" fill="#F4C889"/><path d="M410.865 372.315h-20.194v14.136h20.194v-14.136z" fill="#BC7E2C"/><path d="M444.687 372.315h-54.016v2.921h54.016v-2.921z" fill="#D2923F"/><path d="M448 358.19h-54.016v14.136H448V358.19z" fill="#E4A758"/><path d="M443.836 358.19h-16.008v14.136h16.008V358.19z" fill="#F4C889"/><path d="M414.178 358.19h-20.194v14.136h20.194V358.19z" fill="#BC7E2C"/><path d="M448 358.19h-54.016v2.921H448v-2.921z" fill="#D2923F"/><path d="M444.687 344.06h-54.016v14.136h54.016V344.06z" fill="#E4A758"/><path d="M440.523 344.06h-16.008v14.136h16.008V344.06z" fill="#F4C889"/><path d="M410.865 344.06h-20.194v14.136h20.194V344.06z" fill="#BC7E2C"/><path d="M444.687 344.06h-54.016v2.921h54.016v-2.921z" fill="#D2923F"/><path d="M446.896 329.924h-54.017v14.136h54.017v-14.136z" fill="#E4A758"/><path d="M442.732 329.924h-16.009v14.136h16.009v-14.136z" fill="#F4C889"/><path d="M413.073 329.924h-20.194v14.136h20.194v-14.136z" fill="#BC7E2C"/></g><defs><clipPath id="clip0_578_12674"><path fill="#fff" d="M0 0h448v443H0z"/></clipPath></defs></svg>