<svg width="448" height="443" fill="none" xmlns="http://www.w3.org/2000/svg"><g clip-path="url(#clip0_578_12729)"><path d="M425.5 96.5L406 78l-62.5 31v178h82V96.5z" fill="#F6F5F4"/><path d="M414.089 64.523l-9.824 35.157-21.811 21.48-32.889 9.293-32.967-8.52-22.38-21.06-10.586-34.937 8.305-32.59 20.315-22.12L348.151 0l36.13 10.442 22.243 24.263 7.565 29.818z" fill="#D2923F"/><path d="M406.976 64.6l-8.752 31.325-19.432 19.133-29.305 8.288-29.372-7.592-19.945-18.769-9.432-31.126 7.4-29.034 18.106-19.713 31.984-10 32.188 9.304L400.24 38.03l6.736 26.57z" fill="#DAE1E4"/><path d="M308.785 105.091l6.063-11.524 9.349-5.185 25.324-5.058 14.39-.154 19.482 5.185 10.442 11.894-15.042 14.809-29.305 8.289-29.372-7.593-11.331-10.663z" fill="#995F39"/><path opacity=".2" d="M349.328 101.867l4.086-2.419 2.314 4.738.525 2.231-12.066 2.932-19.498-2.507-8.515-5.898-1.325-7.377 5.268-2.92 4.08-2.265 6.168-1.253 1.536 2.954.784 3.931 6.444 7.472 10.199.381z" fill="#F6F5F4"/><path opacity=".4" d="M363.911 83.17l19.481 5.185 10.443 11.894-15.042 14.809-23.585 6.671 1.668-11.845-1.149-5.698-2.314-4.738-4.086 2.419-10.199-.381-6.444-7.471-1.403-7.046 32.63-3.8z" fill="#36312B"/><path d="M325.036 66.25l1.673 13.85 4.44 9.006 4.291 6.46 7.62 3.43 8.228-1.105 10.033-5.726 4.931-5.975 3.584-10.762-1.055-11.485-2.937-9.244-40.808 11.552z" fill="#D8A27D"/><path opacity=".4" d="M325.787 72.463l4.821.75 13.606-1.076 13.17-4.025 4.307 1.551 4.053 6.152.884 9.249 3.208-9.636-1.055-11.485-2.937-9.244-40.808 11.552.751 6.212z" fill="#36312B"/><path d="M306.935 60.42l7.664 7.576 7.985 1.49 5.086.956 11.077-.817 9.448-2.905 4.881-5.08 8.151-11.248-32.497-.767-3.181-1.375-4.219-1.822-7.581.154-6.494 4.843-.32 8.995z" fill="#BD8055"/><path d="M327.389 55.19l7.09 5.395 11.905.326 10.056-4.958 5.903-7.93-3.225-4.6-1.336-5.04-1.419-3.364-.707-1.684-5.152-1.8-8.835 2.766-11.055 1.127-2.944 3.153.078 6.897-.105 2.981-.254 6.732z" fill="#BD8055"/><path d="M362.343 48.023l-4.838 7.753-5.433 2.76-7.394 1.746-8.869 1.137-5.72-1.419-2.778-2.91.243-6.472 3.473 2.485 6.544.812 8.366-1.546 2.694-.944 3.695 2.86 1.253-4.942 3.733-2.43 2.601-2.357 2.43 3.467z" fill="#D8A27D"/><path d="M338.747 69.625l11.839-5.699 5.693-6.858 6.522-13.407 7.394-4.992 6.499-.027 3.49 5.19-.453 7.471-5.825 6.262-16.704 7.035-18.455 5.025z" fill="#995F39"/><path d="M327.67 38.58l1.961 1.94 4.45 1.18 8.283-.441 9.327-2.882 4.672-3.358-.707-1.684-5.152-1.8-8.835 2.766-11.055 1.127-2.944 3.153zm-20.735 21.84l7.664 7.576 7.985 1.49h.005l-6.797-3.009-5.533-7.046 1.988-7.47 5.411-3.628 7.891-.083-4.219-1.822-7.581.154-6.494 4.843-.32 8.995z" fill="#D8A27D"/><path opacity=".2" d="M352.255 69.68l1.656 3.087 1.972 6.206 1.899 8.736-1.369 5.118-5.125 5.064-8.228 1.104-7.62-3.429-4.291-6.46-4.439-9.006-.922-7.637 4.82.75 13.905-1.164 7.742-2.37z" fill="#F6F5F4"/><path d="M327.389 55.003l-1.182-2.402-1.353-2.877-1.309-1.717-1.082-1.094 5.152 2.226-.226 5.864z" fill="#995F39"/><path d="M339.117 85.064l2.496-1.066 2.055-.635 4.301.376 2.778 1.341 2.347 1.712 2.733 1.27-4.611 2.082-6.063.795-4.539-.403-1.751-1.33-1.479 1.236-4.528.497-3.91-.486-3.49-1.248 2.689-2.076 2.303-2.64 4.539-.773 2.192.492 1.938.856z" fill="#635C4F"/><path d="M271.997 395.313H28.085v-18.255l5.378-11.579-5.378-11.745V242.916l4.622-7.945-4.622-7.726v-29.834h243.912v197.902z" fill="#536B75"/><path d="M362.105 395.313H145.151V240.984l6.71-10.337-6.71-11.082v-22.154h216.954v197.902z" fill="#75929D"/><path d="M297.663 255.037h-88.076v140.276h88.076V255.037z" fill="#3F535B"/><path d="M432.324 181.552H195.17v15.853h237.154v-15.853zm0 213.761H195.17v19.536h237.154v-19.536z" fill="#8FA7B0"/><path d="M195.17 181.552H11.922v15.853H195.17v-15.853z" fill="#61808A"/><path d="M195.17 395.313H11.922v19.536H195.17v-19.536z" fill="#536B75"/><path d="M441.777 434.297H283.451l-12.513-3.754-13.805 3.754H195.17v-19.448h246.607v19.448z" fill="#A6BAC2"/><path d="M195.17 414.849H0v19.448h195.17v-19.448z" fill="#61808A"/><path d="M313.75 102.667l-118.58 78.885h237.154L313.75 102.667z" fill="#8FA7B0"/><path d="M216.998 183.684l96.751-64.368 96.746 64.368H216.998z" fill="#75929D"/><path d="M313.75 119.316l-7.704 5.124 89.048 59.244h15.401l-96.745-64.368z" fill="#536B75"/><path d="M11.922 181.552l45.175-30.05 13.999-2.556 4.97-10.067L124 106.989V146h124v-42.471l9.458 3.429 13.241-4.291h43.05l-118.58 78.885H11.922zm199.863 201.304h-33.226v-86.295l5.787-10.442-5.787-9.067v-67.189h33.226v172.993z" fill="#A6BAC2"/><path d="M190.133 382.856h-11.574v-86.494l5.787-10.243-5.787-9.067v-67.189h11.574v172.993z" fill="#536B75"/><path d="M273.064 382.856h-33.226V209.863h33.226v136.29l-5.5 9.596 5.5 10.867v16.24zm75.192 0H315.03V277.969l5.793-10.188-5.793-10.613v-47.305h33.226v125.61l-4.07 8.791 4.07 9.166v29.426zm61.278 0h-33.226V209.863h33.226v88.034l-4.208 8.631 4.208 9.094v67.234z" fill="#A6BAC2"/><path d="M219.097 197.411h-47.854v12.452h47.854v-12.452zm0 185.445h-47.854v12.452h47.854v-12.452zm61.277-185.445h-47.853v12.452h47.853v-12.452z" fill="#8FA7B0"/><path d="M186.677 382.856h-15.434v12.452h15.434v-12.452zm0-185.445h-15.434v12.452h15.434v-12.452z" fill="#536B75"/><path d="M219.097 197.411h-47.854v4.097h47.854v-4.097zm61.277 0h-47.853v4.097h47.853v-4.097z" fill="#536B75"/><path d="M280.374 382.856h-47.853v12.452h47.853v-12.452zm75.199-185.445h-47.854v12.452h47.854v-12.452zm0 185.445h-47.854v12.452h47.854v-12.452zm61.277-185.445h-47.853v12.452h47.853v-12.452zm0 185.445h-47.853v12.452h47.853v-12.452z" fill="#8FA7B0"/><path d="M251.418 209.863h-11.58v172.993h11.58V209.863zm75.192 172.993h-11.58V277.969l5.793-10.188-5.793-10.613v-47.305h11.58v172.993zm61.277-172.993h-11.579v172.993h11.579V209.863zM247.955 382.856h-15.434v12.452h15.434v-12.452zm0-185.445h-15.434v12.452h15.434v-12.452zm75.198 185.445h-15.434v12.452h15.434v-12.452zm0-185.445h-15.434v12.452h15.434v-12.452zm61.278 185.445h-15.434v12.452h15.434v-12.452zm0-185.445h-15.434v12.452h15.434v-12.452z" fill="#536B75"/><path d="M355.573 197.411h-47.854v4.097h47.854v-4.097zm61.277 0h-47.853v4.097h47.853v-4.097z" fill="#536B75"/></g><defs><clipPath id="clip0_578_12729"><path fill="#fff" d="M0 0h448v443H0z"/></clipPath></defs></svg>