<svg width="448" height="443" fill="none" xmlns="http://www.w3.org/2000/svg"><path d="M276.793 278.411L274 270.047l1.452-7.251 5.318-6.316 7.752-2.762h4.537l2.799 1.183.993.803 1.473 1.193 4.383 3.554 2.751 7.647-1.066 7.182-5.661 7.113-4.109 2.804h-4.536l-4.273-1.019-1.716-.407-1.748-.417-2.931-2.608-2.625-2.335z" fill="#BC7E2C"/><path d="M278.536 270.047l1.452-7.251 5.323-6.321 7.753-2.757 7.33 1.178 1.246 1.019 5.603 4.536 1.067 2.973 1.69 4.674-1.067 7.187-5.661 7.108-5.344 1.732-3.301 1.072-4.278-1.014-1.716-.412-.544-.126-1.204-.285-2.931-2.62-2.619-2.334-.549-1.642-2.25-6.717z" fill="#E4A758"/><path d="M280.786 276.764l20.854-20.849 5.603 4.536 1.067 2.973-20.221 20.221-1.204-.286-2.931-2.619-2.619-2.334-.549-1.642z" fill="#F4C889"/><path d="M283.648 269.846l.982-4.901 3.596-4.261 5.234-1.864 3.179.512 1.774.28 4.627 3.76.987 2.746.871 2.418-.718 4.853-3.823 4.795-3.607 1.173-2.234.723-2.889-.681-.707-.174-.449-.101-1.183-.29-1.98-1.764-1.77-1.568-1.272-3.797-.618-1.859z" fill="#D2923F"/><path d="M284.266 271.705l12.373-12.373 1.775.28 4.626 3.76.987 2.746-13.107 13.107-.449-.101-1.183-.29-1.98-1.764-1.769-1.568-1.273-3.797z" fill="#E4A758"/><path d="M299.427 225.024l-3.283-9.832 1.707-8.522 6.25-7.424 9.113-3.246h5.332l3.289 1.39 1.167.944 1.732 1.403 5.152 4.177 3.234 8.988-1.254 8.441-6.654 8.361-4.829 3.296h-5.332l-5.022-1.198-2.017-.478-2.055-.49-3.445-3.067-3.085-2.743z" fill="#BC7E2C"/><path d="M301.475 215.192l1.707-8.522 6.257-7.43 9.113-3.24 8.615 1.384 1.465 1.198 6.586 5.332 1.254 3.494 1.986 5.494-1.254 8.447-6.654 8.355-6.282 2.036-3.879 1.26-5.028-1.192-2.017-.484-.64-.149-1.415-.335-3.445-3.079-3.079-2.743-.645-1.931-2.645-7.895z" fill="#E4A758"/><path d="M304.12 223.087l24.512-24.505 6.586 5.332 1.254 3.495-23.768 23.766-1.415-.335-3.445-3.079-3.079-2.743-.645-1.931z" fill="#F4C889"/><path d="M307.484 214.956l1.155-5.76 4.227-5.009 6.151-2.191 3.737.602 2.085.329 5.438 4.419 1.161 3.228 1.024 2.843-.844 5.704-4.494 5.636-4.24 1.378-2.625.85-3.396-.8-.832-.205-.527-.118-1.391-.342-2.327-2.073-2.08-1.843-1.496-4.463-.726-2.185z" fill="#D2923F"/><path d="M308.211 217.141l14.543-14.543 2.086.329 5.437 4.419 1.161 3.228-15.406 15.406-.528-.118-1.39-.341-2.328-2.074-2.079-1.843-1.496-4.463z" fill="#E4A758"/><path d="M225.662 304.484L223 296.533l1.381-6.897 5.063-6.008 7.372-2.628h4.313l2.662 1.126.944.768 1.402 1.132 4.164 3.385 2.617 7.272-1.01 6.825-5.384 6.764-3.91 2.667h-4.312l-4.064-.966-1.635-.387-1.662-.397-2.789-2.485-2.49-2.22z" fill="#BC7E2C"/><path d="M227.313 296.533l1.381-6.902 5.063-6.003 7.372-2.628 6.974 1.126 1.182.961 5.329 4.324 1.016 2.821 1.607 4.451-1.016 6.825-5.384 6.764-5.08 1.646-3.137 1.021-4.07-.966-1.634-.387-.514-.121-1.148-.276-2.789-2.485-2.49-2.22-.519-1.562-2.143-6.389z" fill="#E4A758"/><path d="M229.456 302.922l19.829-19.835 5.329 4.324 1.016 2.822-19.228 19.232-1.148-.276-2.789-2.485-2.49-2.22-.519-1.562z" fill="#F4C889"/><path d="M232.178 296.339l.933-4.66 3.418-4.053 4.981-1.772 3.02.485 1.69.271 4.396 3.573.938 2.611.834 2.298-.685 4.616-3.639 4.566-3.429 1.11-2.126.69-2.744-.651-.674-.16-.425-.1-1.126-.27-1.883-1.679-1.685-1.496-1.209-3.612-.585-1.767z" fill="#D2923F"/><path d="M232.763 298.107l11.767-11.767 1.69.27 4.395 3.573.939 2.612-12.463 12.468-.425-.099-1.127-.271-1.883-1.679-1.684-1.496-1.209-3.611z" fill="#E4A758"/></svg>