<svg width="519" height="504" fill="none" xmlns="http://www.w3.org/2000/svg"><g clip-path="url(#clip0_1159_95886)"><path fill-rule="evenodd" clip-rule="evenodd" d="M156.593 16.748c-11.529 0-20.874 9.346-20.874 20.875v493.154c0 11.529 9.345 20.874 20.874 20.874h206.786c11.528 0 20.874-9.345 20.874-20.874V37.623c0-11.529-9.346-20.874-20.874-20.874H156.593zM165.57 341c-10.808 0-19.57 8.762-19.57 19.57s8.762 19.569 19.57 19.569h187.216c10.808 0 19.569-8.761 19.569-19.569S363.594 341 352.786 341H165.57z" fill="#F6F5F4"/><rect x="136" y="17" width="248.534" height="534.903" rx="20.874" stroke="#36312B" stroke-width="7.176"/><g filter="url(#filter0_d_1159_95886)"><rect x="149" y="81" width="223.746" height="87.411" rx="5.219" fill="#fff"/></g><path d="M180.408 126.489c0-3.948-5.83-3.024-5.83-5.074 0-.739.521-1.092 1.21-1.075.773.017 1.31.471 1.361 1.227h3.108c-.118-2.252-1.848-3.528-4.419-3.528-2.469 0-4.3 1.243-4.3 3.477-.034 4.183 5.863 3.007 5.863 5.191 0 .689-.538 1.109-1.378 1.109-.806 0-1.378-.437-1.462-1.344h-3.057c.084 2.386 2.066 3.646 4.603 3.646 2.755 0 4.301-1.647 4.301-3.629zm11.024-5.863h-2.873v5.09c0 1.277-.705 1.982-1.814 1.982-1.075 0-1.797-.705-1.797-1.982v-5.09h-2.856v5.476c0 2.504 1.461 3.999 3.628 3.999 1.26 0 2.268-.571 2.839-1.378V130h2.873v-9.374zm1.492 4.687c0 2.973 1.949 4.821 4.704 4.821 2.352 0 4.015-1.36 4.503-3.528h-3.058c-.252.689-.705 1.076-1.495 1.076-1.025 0-1.73-.807-1.73-2.369 0-1.562.705-2.369 1.73-2.369.79 0 1.26.42 1.495 1.075h3.058c-.488-2.234-2.151-3.528-4.503-3.528-2.755 0-4.704 1.865-4.704 4.822zm10.172 0c0 2.973 1.949 4.821 4.704 4.821 2.352 0 4.015-1.36 4.502-3.528h-3.057c-.252.689-.706 1.076-1.495 1.076-1.025 0-1.731-.807-1.731-2.369 0-1.562.706-2.369 1.731-2.369.789 0 1.26.42 1.495 1.075h3.057c-.487-2.234-2.15-3.528-4.502-3.528-2.755 0-4.704 1.865-4.704 4.822zm14.876-2.52c.957 0 1.764.588 1.764 1.613h-3.596c.168-1.042.891-1.613 1.832-1.613zm4.485 4.099H219.4c-.236.504-.689.907-1.496.907-.924 0-1.68-.571-1.78-1.797h6.501c.034-.286.05-.571.05-.84 0-2.856-1.932-4.671-4.67-4.671-2.789 0-4.737 1.848-4.737 4.822 0 2.973 1.982 4.821 4.737 4.821 2.335 0 3.998-1.411 4.452-3.242zm9.344.386c-.05-3.494-5.124-2.435-5.124-3.931 0-.453.37-.722 1.042-.722.806 0 1.293.42 1.377 1.058h2.655c-.185-1.848-1.529-3.192-3.948-3.192-2.453 0-3.814 1.311-3.814 2.907 0 3.444 5.107 2.352 5.107 3.864 0 .42-.386.756-1.125.756-.79 0-1.378-.437-1.445-1.092h-2.839c.134 1.814 1.814 3.208 4.317 3.208 2.352 0 3.797-1.226 3.797-2.856zm9.368 0c-.051-3.494-5.124-2.435-5.124-3.931 0-.453.37-.722 1.042-.722.806 0 1.293.42 1.377 1.058h2.654c-.184-1.848-1.528-3.192-3.947-3.192-2.453 0-3.814 1.311-3.814 2.907 0 3.444 5.107 2.352 5.107 3.864 0 .42-.386.756-1.125.756-.79 0-1.378-.437-1.445-1.092h-2.839c.134 1.814 1.814 3.208 4.317 3.208 2.352 0 3.797-1.226 3.797-2.856zm2.043 2.722h2.873v-6.989h1.545v-2.385h-1.545v-.084c0-.991.386-1.327 1.495-1.26v-2.436c-2.856-.151-4.368 1.058-4.368 3.511v.269h-1.042v2.385h1.042V130zm15.025-9.374h-2.873v5.09c0 1.277-.706 1.982-1.814 1.982-1.076 0-1.798-.705-1.798-1.982v-5.09h-2.856v5.476c0 2.504 1.462 3.999 3.629 3.999 1.26 0 2.268-.571 2.839-1.378V130h2.873v-9.374zM260.3 130h2.873v-12.432H260.3V130zm4.955 0h2.872v-12.432h-2.872V130zm9.272-3.511l-2.167-5.863h-3.209l3.813 9.055-2.15 4.771h3.091l5.88-13.826h-3.108l-2.15 5.863zm17.467.789c-.05-3.494-5.124-2.435-5.124-3.931 0-.453.37-.722 1.042-.722.806 0 1.293.42 1.377 1.058h2.655c-.185-1.848-1.529-3.192-3.948-3.192-2.453 0-3.814 1.311-3.814 2.907 0 3.444 5.107 2.352 5.107 3.864 0 .42-.386.756-1.125.756-.79 0-1.378-.437-1.445-1.092h-2.839c.134 1.814 1.814 3.208 4.317 3.208 2.352 0 3.797-1.226 3.797-2.856zm2.211-.537c0 2.436 1.361 3.259 3.31 3.259h1.461v-2.436h-1.024c-.639 0-.874-.235-.874-.79v-3.763h1.882v-2.385h-1.882v-2.285h-2.873v2.285h-1.142v2.385h1.142v3.73zm5.8-1.445c0 2.957 1.831 4.838 4.116 4.838 1.395 0 2.386-.638 2.907-1.461V130h2.872v-9.374h-2.872v1.327c-.504-.823-1.496-1.462-2.89-1.462-2.302 0-4.133 1.848-4.133 4.805zm7.023.017c0 1.495-.958 2.318-2.05 2.318-1.075 0-2.05-.84-2.05-2.335s.975-2.301 2.05-2.301c1.092 0 2.05.823 2.05 2.318zm4.951 4.687h2.872v-3.931l2.856 3.931h3.562l-3.931-4.67 3.897-4.704h-3.545l-2.839 3.813v-6.871h-2.872V130zm14.517-7.207c.958 0 1.764.588 1.764 1.613h-3.595c.168-1.042.89-1.613 1.831-1.613zm4.486 4.099h-3.058c-.235.504-.689.907-1.495.907-.924 0-1.68-.571-1.781-1.797h6.502c.033-.286.05-.571.05-.84 0-2.856-1.932-4.671-4.67-4.671-2.789 0-4.738 1.848-4.738 4.822 0 2.973 1.983 4.821 4.738 4.821 2.335 0 3.998-1.411 4.452-3.242zm1.162-1.596c0 2.957 1.832 4.838 4.133 4.838 1.378 0 2.369-.621 2.89-1.478V130h2.872v-12.432h-2.872v4.351c-.572-.856-1.647-1.428-2.89-1.428-2.301 0-4.133 1.848-4.133 4.805zm7.023.017c0 1.495-.958 2.318-2.05 2.318-1.075 0-2.05-.84-2.05-2.335s.975-2.301 2.05-2.301c1.092 0 2.05.823 2.05 2.318zm5.959.521h2.436l.335-8.047h-3.107l.336 8.047zm2.956 2.755c0-.891-.688-1.579-1.696-1.579-1.025 0-1.714.688-1.714 1.579 0 .857.689 1.545 1.714 1.545 1.008 0 1.696-.688 1.696-1.545z" fill="#A79D90"/><g opacity=".5" filter="url(#filter1_d_1159_95886)"><rect x="146.809" y="260.716" width="226.355" height="45.662" rx="5.219" fill="#fff"/></g><rect opacity=".5" x="158.551" y="277.677" width="60.014" height="12.394" rx="6.197" fill="#ECE9E4"/><rect opacity=".5" x="149.418" y="193.527" width="45.662" height="12.394" rx="6.197" fill="#fff"/><rect opacity=".5" x="313.148" y="193.527" width="60.014" height="12.394" rx="6.197" fill="#fff"/><rect opacity=".5" x="149.418" y="223.534" width="63.927" height="12.394" rx="6.197" fill="#fff"/><rect opacity=".5" x="288.363" y="223.534" width="84.802" height="12.394" rx="6.197" fill="#fff"/><rect opacity=".5" x="245.309" y="277.677" width="119.375" height="12.394" rx="6.197" fill="#ECE9E4"/><g clip-path="url(#clip1_1159_95886)"><path d="M272.335 47.687c-1.711-.65-3.194-.305-4.547.555l-1.689-7.671a2.122 2.122 0 00-.353-.786 2.086 2.086 0 00-.634-.576 2.048 2.048 0 00-1.655-.183l-7.282 2.336a3.15 3.15 0 00-1.376.89c-.374.413-.634.92-.755 1.468l-1.095 4.969c-2.381-1.77-4.221-1.346-5.204-.847-1.992 1.016-2.868 3.433-2.232 6.165.824 3.535 4.047 7.1 9.398 7.1 4.834 0 8.028-3.843 10.593-6.929 2.462-2.963 4.065-4.74 5.928-4.037 1.043.395 1.465 1.202 1.251 2.397-.44 2.47-3.675 5.948-9.493 5.948v2.624c5.206 0 11.129-3.031 12.031-8.103.436-2.442-.671-4.48-2.886-5.32zm-8.802 4.802c-2.451 2.946-4.986 5.999-8.622 5.999-3.94 0-6.298-2.553-6.887-5.084-.266-1.143-.196-2.672.877-3.216 1.102-.56 2.478.464 3.413 1.389l-.621 2.816h2.644l2.148-9.75a1.3 1.3 0 01.862-.955l5.512-1.768a.792.792 0 01.887.294c.066.09.113.194.137.305l1.68 7.63c-.693.731-1.365 1.539-2.03 2.34z" fill="#A79D90"/></g></g><path d="M36.297 430.939h25.895l20.208-8.275h76.341l52.376-11.232H375.66l32.45 11.232h23.176l16.574 11.02h43.869L519 449.04h-65.193l-11.43 9.621h30.306l26.944 10.896H447.86l-9.511 8.558h-73.961l-6.036 5.985 17.466 7.775h20.4l18.594 11.143H180.111l15.83-9.722h49.544l11.667-7.831-15.954-4.866h-82.389l-8.327-5.594H27.362l13.347-10.896h14.318l10.008-12.071H0l36.297-21.099z" fill="#E28C65"/><path d="M402.83 439.608h11.035l11.294 15.551h-14.464l-6.003 6.723h-78.191l-17.241 5.594H195.197l-16.981-5.594H76.691l13.055-15.058h13.731l9.771-10.091 56.396-.781 56.395 5.219 88.396-1.781 37.198-11.891 22.099.055 29.098 12.054z" fill="#AB5B34"/><path d="M166.132 503.018l-8.823-8.435h-29.528l-11.023 8.435h49.374z" fill="#E28C65"/><defs><clipPath id="clip0_1159_95886"><path fill="#fff" transform="translate(131 12)" d="M0 0h258v425H0z"/></clipPath><clipPath id="clip1_1159_95886"><path fill="#fff" transform="translate(245.309 38.927)" d="M0 0h30.007v22.179H0z"/></clipPath><filter id="filter0_d_1159_95886" x="135.954" y="81" width="249.839" height="116.113" filterUnits="userSpaceOnUse" color-interpolation-filters="sRGB"><feFlood flood-opacity="0" result="BackgroundImageFix"/><feColorMatrix in="SourceAlpha" values="0 0 0 0 0 0 0 0 0 0 0 0 0 0 0 0 0 0 127 0" result="hardAlpha"/><feMorphology radius="7.828" in="SourceAlpha" result="effect1_dropShadow_1159_95886"/><feOffset dy="15.656"/><feGaussianBlur stdDeviation="10.437"/><feComposite in2="hardAlpha" operator="out"/><feColorMatrix values="0 0 0 0 0.211765 0 0 0 0 0.192157 0 0 0 0 0.168627 0 0 0 0.16 0"/><feBlend in2="BackgroundImageFix" result="effect1_dropShadow_1159_95886"/><feBlend in="SourceGraphic" in2="effect1_dropShadow_1159_95886" result="shape"/></filter><filter id="filter1_d_1159_95886" x="144.199" y="260.716" width="231.574" height="53.49" filterUnits="userSpaceOnUse" color-interpolation-filters="sRGB"><feFlood flood-opacity="0" result="BackgroundImageFix"/><feColorMatrix in="SourceAlpha" values="0 0 0 0 0 0 0 0 0 0 0 0 0 0 0 0 0 0 127 0" result="hardAlpha"/><feMorphology radius="5.219" in="SourceAlpha" result="effect1_dropShadow_1159_95886"/><feOffset dy="5.219"/><feGaussianBlur stdDeviation="3.914"/><feComposite in2="hardAlpha" operator="out"/><feColorMatrix values="0 0 0 0 0.211765 0 0 0 0 0.192157 0 0 0 0 0.168627 0 0 0 0.12 0"/><feBlend in2="BackgroundImageFix" result="effect1_dropShadow_1159_95886"/><feBlend in="SourceGraphic" in2="effect1_dropShadow_1159_95886" result="shape"/></filter></defs></svg>