<svg width="519" height="503" fill="none" xmlns="http://www.w3.org/2000/svg"><path d="M257.5 293.5H242L223.5 276 206 248.5l-9-32.5 21 19 14 16.5c-3.167-11.667-9.6-35.3-10-36.5-.4-1.2-2.833-26.833-4-39.5V123l22 47.5 15.5 46.5-2.5-38.5 15.5-48.5 10-36.5 10 66.5-4 51 15.5-45.5 22-49v53l-4.5 40-9 35.5 11-13 23-22-8 31.5-16.5 28-20.5 18h-14l-7-2.5-19 8.5z" fill="#988429"/><path d="M250 290.5l-4 3h11.5L277 285l6.5 2.5H295l-6-4v-4l11-5.5 10.5-8 5-11-6.5 5.5-9 5.5h-8v-12.5l8-17 5.5-22 2.5-28-12 39.5-8.5 16.5-6 4v-12L276 226v-31l-3-.5 2-4 1.5-25-1.5-22-4 29.5 1 8-2 1-5.5-31-1 20.5 1.5 24 6 15-5 17.5-7 12.5v11l-7.5-4-7.5-15-12-39.5 3.5 28 6 22.5 6.5 17v11h-8l-8-4-7.5-6 4.5 10 9.5 6.5 13 7.5-1.5 5z" fill="#62531A"/></svg>