<svg width="519" height="503" fill="none" xmlns="http://www.w3.org/2000/svg"><path d="M146 318.5c-1.6-.4-5.333 2.833-7 4.5l.5 75 236.5 1.5 4.5-5-2-71.5c-76.833-1.333-230.9-4.1-232.5-4.5z" fill="#F6F5F4"/><g filter="url(#filter0_d_1159_95884)"><rect x="146" y="341.084" width="226.355" height="39.139" rx="19.57" fill="#fff"/></g><path d="M214.884 363.142c0-3.065-4.527-2.348-4.527-3.94 0-.574.404-.848.939-.835.6.013 1.018.366 1.057.953h2.413c-.091-1.748-1.435-2.74-3.431-2.74-1.918 0-3.34.966-3.34 2.701-.026 3.248 4.553 2.335 4.553 4.031 0 .535-.417.861-1.069.861-.627 0-1.07-.339-1.135-1.044h-2.375c.065 1.853 1.605 2.831 3.575 2.831 2.139 0 3.34-1.278 3.34-2.818zm3.212 2.727h2.701l1.513-6.027 1.461 6.027h2.701l2.387-9.158h-2.4l-1.331 6.666-1.565-6.666h-2.453l-1.631 6.666-1.318-6.666h-2.387l2.322 9.158zm11.882 0h2.231v-9.158h-2.231v9.158zm6.079-5.062v-2.296h1.213c.887 0 1.266.444 1.266 1.148 0 .705-.379 1.148-1.266 1.148h-1.213zm4.749-1.148c0-1.683-1.122-2.948-3.366-2.948h-3.614v9.158h2.231v-3.288h1.383c2.335 0 3.366-1.409 3.366-2.922zm6.771-2.948h-5.61v9.158h5.61v-1.787h-3.379v-2.009h2.988v-1.722h-2.988v-1.853h3.379v-1.787zm3.718 1.787h2.426v7.371h2.231v-7.371h2.427v-1.787h-7.084v1.787zm17.218 2.766c0-2.753-2.074-4.684-4.683-4.684-2.596 0-4.71 1.931-4.71 4.684s2.114 4.696 4.71 4.696 4.683-1.943 4.683-4.696zm-7.11 0c0-1.631.94-2.662 2.427-2.662 1.461 0 2.413 1.031 2.413 2.662 0 1.604-.952 2.661-2.413 2.661-1.487 0-2.427-1.057-2.427-2.661zm17.77 1.878c0-3.065-4.527-2.348-4.527-3.94 0-.574.404-.848.939-.835.6.013 1.018.366 1.057.953h2.414c-.092-1.748-1.436-2.74-3.432-2.74-1.917 0-3.34.966-3.34 2.701-.026 3.248 4.554 2.335 4.554 4.031 0 .535-.418.861-1.07.861-.626 0-1.07-.339-1.135-1.044h-2.375c.066 1.853 1.605 2.831 3.575 2.831 2.14 0 3.34-1.278 3.34-2.818zm.877-4.644h2.427v7.371h2.231v-7.371h2.426v-1.787h-7.084v1.787zm14.453 7.371h2.362l-3.314-9.158h-2.583l-3.314 9.158h2.335l.548-1.618h3.418l.548 1.618zm-1.122-3.34h-2.257l1.122-3.353 1.135 3.353zm9.802 3.34h2.727l-3.679-4.67 3.548-4.488h-2.622l-3.053 4.018v-4.018h-2.231v9.158h2.231v-4.044l3.079 4.044zm9.397-9.158h-5.61v9.158h5.61v-1.787h-3.379v-2.009h2.988v-1.722h-2.988v-1.853h3.379v-1.787z" fill="#7E7467"/><defs><filter id="filter0_d_1159_95884" x="132.954" y="341.084" width="252.448" height="67.841" filterUnits="userSpaceOnUse" color-interpolation-filters="sRGB"><feFlood flood-opacity="0" result="BackgroundImageFix"/><feColorMatrix in="SourceAlpha" values="0 0 0 0 0 0 0 0 0 0 0 0 0 0 0 0 0 0 127 0" result="hardAlpha"/><feMorphology radius="7.828" in="SourceAlpha" result="effect1_dropShadow_1159_95884"/><feOffset dy="15.656"/><feGaussianBlur stdDeviation="10.437"/><feComposite in2="hardAlpha" operator="out"/><feColorMatrix values="0 0 0 0 0.211765 0 0 0 0 0.192157 0 0 0 0 0.168627 0 0 0 0.16 0"/><feBlend in2="BackgroundImageFix" result="effect1_dropShadow_1159_95884"/><feBlend in="SourceGraphic" in2="effect1_dropShadow_1159_95884" result="shape"/></filter></defs></svg>