<svg width="519" height="503" fill="none" xmlns="http://www.w3.org/2000/svg"><g filter="url(#filter0_d_1159_95862)"><rect x="148" y="81" width="223.746" height="87.411" rx="5.219" fill="#fff"/></g><path fill="#ECE9E4" d="M249.766 125.358H148.004v-1.305h101.762z"/><path opacity=".15" d="M265.746 124.705a5.871 5.871 0 11-11.742 0 5.871 5.871 0 0111.742 0z" fill="#7E7467"/><path d="M259.875 127.967l-.346.346a.488.488 0 00.692 0l-.346-.346zm.489-6.523a.49.49 0 00-.978 0h.978zm-2.753 3.568a.488.488 0 10-.691.692l.691-.692zm5.219.692a.49.49 0 00-.692-.692l.692.692zm-2.466 2.263v-6.523h-.978v6.523h.978zm-3.444-2.263l2.609 2.609.692-.692-2.61-2.609-.691.692zm3.301 2.609l2.609-2.609-.692-.692-2.609 2.609.692.692zm5.035-3.608a5.381 5.381 0 01-5.381 5.382v.978a6.36 6.36 0 006.36-6.36h-.979zm-5.381 5.382a5.382 5.382 0 01-5.382-5.382h-.978a6.36 6.36 0 006.36 6.36v-.978zm-5.382-5.382a5.382 5.382 0 015.382-5.381v-.979a6.36 6.36 0 00-6.36 6.36h.978zm5.382-5.381a5.38 5.38 0 015.381 5.381h.979a6.36 6.36 0 00-6.36-6.36v.979z" fill="#7E7467"/><path fill="#ECE9E4" d="M371.746 125.358h-101.11v-1.305h101.11z"/><rect x="157.133" y="97.96" width="76.322" height="12.394" rx="6.197" fill="#ECE9E4"/><rect x="157.133" y="141.013" width="60.014" height="12.394" rx="6.197" fill="#ECE9E4"/><rect x="286.945" y="97.96" width="76.322" height="12.394" rx="6.197" fill="#ECE9E4"/><rect x="243.891" y="141.013" width="119.375" height="12.394" rx="6.197" fill="#ECE9E4"/><defs><filter id="filter0_d_1159_95862" x="134.954" y="81" width="249.839" height="116.113" filterUnits="userSpaceOnUse" color-interpolation-filters="sRGB"><feFlood flood-opacity="0" result="BackgroundImageFix"/><feColorMatrix in="SourceAlpha" values="0 0 0 0 0 0 0 0 0 0 0 0 0 0 0 0 0 0 127 0" result="hardAlpha"/><feMorphology radius="7.828" in="SourceAlpha" result="effect1_dropShadow_1159_95862"/><feOffset dy="15.656"/><feGaussianBlur stdDeviation="10.437"/><feComposite in2="hardAlpha" operator="out"/><feColorMatrix values="0 0 0 0 0.211765 0 0 0 0 0.192157 0 0 0 0 0.168627 0 0 0 0.16 0"/><feBlend in2="BackgroundImageFix" result="effect1_dropShadow_1159_95862"/><feBlend in="SourceGraphic" in2="effect1_dropShadow_1159_95862" result="shape"/></filter></defs></svg>