<svg width="519" height="503" fill="none" xmlns="http://www.w3.org/2000/svg"><g filter="url(#filter0_d_1159_95894)"><rect x="146" y="341.084" width="226.355" height="39.139" rx="19.57" fill="#D5ECDD"/><rect x="146.5" y="341.584" width="225.355" height="38.139" rx="19.07" stroke="#A0D4B4"/></g><path d="M216.561 360.807v-2.296h1.213c.887 0 1.265.444 1.265 1.148 0 .705-.378 1.148-1.265 1.148h-1.213zm4.748-1.148c0-1.683-1.122-2.948-3.366-2.948h-3.613v9.158h2.231v-3.288h1.382c2.336 0 3.366-1.409 3.366-2.922zm6.002.026c0 .718-.391 1.148-1.226 1.148h-1.383v-2.27h1.383c.835 0 1.226.444 1.226 1.122zm-4.84-2.974v9.158h2.231v-3.457h.535l1.904 3.457h2.518l-2.113-3.627c1.409-.417 2.035-1.5 2.035-2.648 0-1.592-1.122-2.883-3.366-2.883h-3.744zm17.526 4.553c0-2.753-2.075-4.684-4.684-4.684-2.596 0-4.71 1.931-4.71 4.684s2.114 4.696 4.71 4.696 4.684-1.943 4.684-4.696zm-7.111 0c0-1.631.94-2.662 2.427-2.662 1.461 0 2.414 1.031 2.414 2.662 0 1.604-.953 2.661-2.414 2.661-1.487 0-2.427-1.057-2.427-2.661zm7.973.013c0 2.74 1.905 4.657 4.606 4.657 2.179 0 3.822-1.213 4.344-3.196h-2.452c-.379.783-1.07 1.174-1.918 1.174-1.37 0-2.309-1.017-2.309-2.635 0-1.618.939-2.636 2.309-2.636.848 0 1.539.392 1.918 1.175h2.452c-.522-1.983-2.165-3.21-4.344-3.21-2.701 0-4.606 1.931-4.606 4.671zm15.926-4.566h-5.61v9.158h5.61v-1.787h-3.379v-2.009h2.988v-1.722h-2.988v-1.853h3.379v-1.787zm8.102 6.431c0-3.065-4.527-2.348-4.527-3.94 0-.574.405-.848.94-.835.6.013 1.017.366 1.056.953h2.414c-.091-1.748-1.435-2.74-3.431-2.74-1.918 0-3.34.966-3.34 2.701-.026 3.248 4.553 2.335 4.553 4.031 0 .535-.417.861-1.07.861-.626 0-1.069-.339-1.135-1.044h-2.374c.065 1.853 1.605 2.831 3.575 2.831 2.139 0 3.339-1.278 3.339-2.818zm8.027 0c0-3.065-4.527-2.348-4.527-3.94 0-.574.404-.848.939-.835.6.013 1.018.366 1.057.953h2.414c-.092-1.748-1.435-2.74-3.432-2.74-1.917 0-3.339.966-3.339 2.701-.027 3.248 4.553 2.335 4.553 4.031 0 .535-.418.861-1.07.861-.626 0-1.07-.339-1.135-1.044h-2.375c.066 1.853 1.605 2.831 3.575 2.831 2.14 0 3.34-1.278 3.34-2.818zm1.373 2.727h2.231v-9.158h-2.231v9.158zm9.81-9.158v5.675l-3.731-5.675h-2.231v9.158h2.231v-5.649l3.731 5.649h2.231v-9.158h-2.231zm8.127-.105c-2.74 0-4.657 1.931-4.657 4.671s1.931 4.657 4.67 4.657c2.414 0 3.94-1.578 4.41-3.157v-2.074h-4.853v1.644h2.831c-.339 1.03-1.109 1.617-2.218 1.617-1.605 0-2.57-.991-2.57-2.687 0-1.592.952-2.609 2.387-2.609.835 0 1.461.326 1.801.939h2.465c-.482-1.879-2.074-3.001-4.266-3.001zm8.02 8.167c0-.691-.535-1.226-1.318-1.226-.795 0-1.33.535-1.33 1.226 0 .666.535 1.201 1.33 1.201.783 0 1.318-.535 1.318-1.201zm3.682 0c0-.691-.535-1.226-1.318-1.226-.795 0-1.33.535-1.33 1.226 0 .666.535 1.201 1.33 1.201.783 0 1.318-.535 1.318-1.201zm3.682 0c0-.691-.535-1.226-1.318-1.226-.795 0-1.33.535-1.33 1.226 0 .666.535 1.201 1.33 1.201.783 0 1.318-.535 1.318-1.201z" fill="#469B53"/><defs><filter id="filter0_d_1159_95894" x="132.954" y="341.084" width="252.448" height="67.841" filterUnits="userSpaceOnUse" color-interpolation-filters="sRGB"><feFlood flood-opacity="0" result="BackgroundImageFix"/><feColorMatrix in="SourceAlpha" values="0 0 0 0 0 0 0 0 0 0 0 0 0 0 0 0 0 0 127 0" result="hardAlpha"/><feMorphology radius="7.828" in="SourceAlpha" result="effect1_dropShadow_1159_95894"/><feOffset dy="15.656"/><feGaussianBlur stdDeviation="10.437"/><feComposite in2="hardAlpha" operator="out"/><feColorMatrix values="0 0 0 0 0.211765 0 0 0 0 0.192157 0 0 0 0 0.168627 0 0 0 0.16 0"/><feBlend in2="BackgroundImageFix" result="effect1_dropShadow_1159_95894"/><feBlend in="SourceGraphic" in2="effect1_dropShadow_1159_95894" result="shape"/></filter></defs></svg>