<svg width="519" height="503" fill="none" xmlns="http://www.w3.org/2000/svg"><path d="M266.5 288h-35L213 269.5 194 242l-9-42 41.5 51.5-9-39L213 170v-53.5l23.5 50.5 13 56 12-56 24.5-50.5v52l-5.5 39.5-8.5 43.5 42-51.5-11.5 42-16.5 27.5-19.5 18.5z" fill="#988429"/><path d="M239 234l-9.5-36 .5 23 4.5 18.5 7.5 16V266l-3 6.5-10-3.5-10-9.5-11.5-13 6.5 13 9 9 13 10.5 3 8.5h19.5l4-9.5 8-6 11.5-10 8-15.5-10 13-11 9.5-10 3-3-6v-10.5l7.5-16L268 221l.5-24-9.5 37-6.5 11.5-2.5-4-1-4.5-1.5 4.5-2.5 4.5-6-12z" fill="#62531A"/></svg>