<svg width="519" height="503" fill="none" xmlns="http://www.w3.org/2000/svg"><path d="M459.753 225.319l24.245 11.768-8.982-31.973-26.882-6.995 11.619 27.2z" fill="#DBE2E5"/><path d="M62.661 440.547l-38.399-50.685L6.937 314.94l39.602-47.783 8.021-43.579 43.716-14.589 35.393-45.634 45.297 7.828H204l7.5 9.817 178-3.5 48.04 15.551 9.129 39.673 48.003 15.295 12.578 46.732-4.43 39.861v39.186l-47.18 49.901-18.1 7.796-374.879 9.052z" fill="#DBE2E5"/><path d="M459.753 224.32l24.245 11.768-8.982-31.974-26.882-6.994 11.619 27.2zM66.648 205.511l24.825-9.24 16.375-22.401-28.637 9.224-12.563 22.417z" fill="#DBE2E5"/><path d="M66.648 206.511l24.825-9.24 16.375-22.401-28.637 9.224-12.563 22.417z" fill="#DBE2E5"/></svg>