<svg width="448" height="486" fill="none" xmlns="http://www.w3.org/2000/svg"><g clip-path="url(#clip0_576_11245)"><path d="M34 251.535l2.676-1.655 29.07-1.88H94.27l27.694 1.767 3.563 1.768-4.455 2.39-26.802 2.39H65.846l-29.844-2.205L34 251.535z" fill="#E2DFD9"/><path d="M399.008 254.336l-46.884 46.786 1.744 1.747 46.884-46.786-1.744-1.747zm-10.02-111.433l-2.422.476 15.546 79.165 2.422-.476-15.546-79.165zm-141.722 56.774l-.607 2.393 143.229 36.349.607-2.393-143.229-36.349zm51.565-57.843l-56.727 46.001 1.555 1.918 56.727-46.002-1.555-1.917zM217.297 38.892l-.69 2.37 87.426 25.417.689-2.37-87.425-25.417zm-7.339 15.649l-2.441.368 19.863 131.806 2.441-.368-19.863-131.806zm-23.755-2.633l-55.443 53.484 1.714 1.777 55.443-53.484-1.714-1.777zm37.676 155.753L95.008 327.5l1.68 1.807L225.56 209.469l-1.681-1.808zm-74.618-25.358l-.459 2.425 72.097 13.649.459-2.426-72.097-13.648zm92.577 27.421l-2.254 1.008 20.129 44.999 2.254-1.008-20.129-44.999zm-178.752 21.38l-2.454.267 10.203 93.616 2.454-.267-10.203-93.616zm26.069 122.784l-.577 2.4 85.52 20.547.577-2.4-85.52-20.547zm325.96-24.897l-11.356-11.446 1.981-12.271 14.375-7.294 11.372 11.441-1.974 12.27-14.398 7.3zm-8.713-12.293l9.196 9.28 11.653-5.919 1.577-9.791-9.202-9.28-11.647 5.919-1.577 9.791zm28.907-145.835l-8.809-8.876 1.532-9.538 11.159-5.667 8.809 8.882-1.537 9.538-11.154 5.661zm-6.767-9.538l7.143 7.199 9.044-4.59 1.223-7.602-7.142-7.199-9.039 4.59-1.229 7.602zM102.357 41.424l-8.32-9.656 2.243-9.572 11.738-4.966 8.315 9.657-2.244 9.571-11.732 4.966zm-6.172-10.178l6.733 7.855 9.538-4.023 1.784-7.636-6.732-7.855-9.539 4.023-1.784 7.636zm38.041 410.952l-15.435-4.656-4.102-11.732 9.157-13.264 15.435 4.657 4.107 11.732-9.162 13.263zm-13.516-6.654l12.506 3.771 7.429-10.751-3.277-9.358-12.512-3.776-7.423 10.75 3.277 9.364zM7.535 320.092l-7.513-9.903 2.75-9.19 11.737-4.141 7.507 9.886-2.75 9.191-11.731 4.157zm-5.431-10.284l6.11 8.023 9.504-3.366 2.194-7.334-6.104-8.023-9.51 3.367-2.194 7.333zM358.93 23.963l-11.042-5.734-1.436-9.482L355.3 0l11.037 5.74 1.436 9.482-8.843 8.741zm-9.302-6.974l8.949 4.652 7.17-7.092-1.15-7.57-8.943-4.65-7.171 7.091 1.145 7.57zM131.687 226.198l-1.398 2.034 3.56 2.447 1.398-2.034-3.56-2.447z" fill="#A79D90"/><path d="M185.918 266.459l-6.509-4.488 1.397-2.031 6.509 4.488-1.397 2.031zm-13.017-8.977l-6.509-4.488 1.398-2.037 6.508 4.488-1.397 2.037zm-13.017-8.943l-6.508-4.489 1.397-2.037 6.508 4.489-1.397 2.037zm-13.023-8.95l-6.508-4.488 1.403-2.031 6.508 4.488-1.403 2.031zm46.962 29.33l-1.399 2.034 3.561 2.447 1.398-2.034-3.56-2.447zm134.95-99.805l-1.059 4.189 2.393.605 1.059-4.189-2.393-.605zm-15.824 72.596l-2.395-.611 2.143-8.478 2.396.606-2.144 8.483zm4.281-16.955l-2.39-.606 2.138-8.478 2.396.6-2.144 8.484zm4.287-16.962l-2.396-.6 2.144-8.478 2.395.6-2.143 8.478zm4.281-16.955l-2.39-.606 2.138-8.478 2.395.606-2.143 8.478zm-17.365 58.775l-1.059 4.188 2.393.605 1.059-4.188-2.393-.605z" fill="#A79D90"/><path d="M414.2 264.462l-1.843.177.414 4.3 1.843-.177-.414-4.3zm1.082 10.902l-1.844.177.639 6.646 1.843-.177-.638-6.646zm1.233 13.364l-1.843.177.412 4.301 1.844-.177-.413-4.301zM150.558 418.963l-3.934 1.785.764 1.686 3.935-1.785-.765-1.686zm15.931-7.227l-7.966 3.613.765 1.686 7.966-3.613-.765-1.686zm11.9-5.399l-3.934 1.784.764 1.687 3.935-1.785-.765-1.686zM121.976 31.261l-.238 1.836 4.284.556.238-1.836-4.284-.556zm38.939 6.914l-8.724-1.122.241-1.84 8.719 1.122-.236 1.84zm-17.443-2.244l-8.72-1.122.236-1.835 8.719 1.122-.235 1.835zm26.411 1.546l-.238 1.836 4.284.557.238-1.837-4.284-.556z" fill="#E2DFD9"/><path d="M160.069 136.711l-4.251.768.439 2.43 4.251-.769-.439-2.429zm8.387.976l-.437-2.429 7.939-1.436.437 2.429-7.939 1.436zm15.879-2.867l-.438-2.429 7.939-1.436.438 2.429-7.939 1.436zm15.878-2.872l-.438-2.43 7.939-1.436.438 2.429-7.939 1.437zm15.878-2.873l-.437-2.429 7.939-1.431.437 2.429-7.939 1.431zm15.879-2.867l-.438-2.43 7.939-1.436.438 2.43-7.939 1.436zm15.878-2.873l-.438-2.429 7.94-1.431.437 2.429-7.939 1.431zm15.878-2.867l-.437-2.429 7.939-1.437.443 2.43-7.945 1.436zm19.69-6.071l-4.251.768.439 2.429 4.251-.768-.439-2.429z" fill="#A79D90"/></g><defs><clipPath id="clip0_576_11245"><path fill="#fff" d="M0 0h448v486H0z"/></clipPath></defs></svg>