<svg width="448" height="486" fill="none" xmlns="http://www.w3.org/2000/svg"><path d="M408 271.5l-6-8.5 11.5-42 13.5-4 17.5 21-7 22.5-29.5 11zM171 35h60V0h-60v35zM87 385v-30l-5-32.5H9.5V385H87z" fill="#ECE9E4"/><path d="M307.799 178.214l2.21-1.268 24.059-1.437h23.616l22.92 1.352 2.945 1.353-3.686 1.834-22.179 1.835h-23.526l-24.698-1.694-1.661-1.975zM196.684 478.741l4.051-2.356 44.1-2.682h43.276l42.002 2.519 5.403 2.519-6.755 3.412-40.65 3.405h-43.119l-45.267-3.147-3.041-3.67z" fill="#E2DFD9"/><path d="M6.07 163.429l6.145 32.991L35.6 223.924l37.66 14.347 39.622-6.576 28.486-22.415 16.075-39.937-6.363-39.152-21.562-28.104L88.515 85.16l-43.534 8.5-28.66 26.185-10.25 43.584z" fill="#8FA7B0"/><path d="M14.582 163.255l5.454 29.3 20.771 24.429 33.457 12.747 35.19-5.84 25.305-19.913-1.448-8.725 6.548-3.949 9.173-22.802-5.65-34.77-19.155-24.962-36.419-15.037-38.663 7.552-25.456 23.256-9.107 38.714z" fill="#DAE1E4"/><path d="M123.828 212.579l-5.908-14.128-10.408-7.047-29.13-8.545-16.838-1.677-18.914 3.276-9.6 7.132-6.133 9.033 13.91 16.361 33.456 12.747 35.191-5.84 14.374-11.312z" fill="#D2923F"/><path opacity=".6" d="M117.921 198.452l-10.408-7.048-8.153-2.39-42.333-7.131 1.745 9.864 12.63 10.323 14.835 1.482 3.68-2.2 3.906 4.102 1.773 8.859-1.785 12.175 15.643-2.597 14.375-11.312-5.908-14.127z" fill="#36312B"/><path d="M106.189 160.399l-.696 16.384-9.555 19.071-8.557 3.17-13.87-1.145-13.667-8.568-5.33-14.066.185-13.561 2.603-11.103 48.887 9.818z" fill="#995F39"/><path opacity=".4" d="M97.408 192.919l3.4-11.036 1.402-8.035-1.402-4.197-16.277-.572-18.42-4.101-11.07-4.753 2.261-9.644 48.886 9.818-.695 16.384-8.085 16.136z" fill="#36312B"/><path d="M100.629 141.272l8.377-4.415 8.904-.511 8.057 5.084 1.195 10.52-8.293 9.566-15.098 4.062-13.062.062-11.34-2.553-6.182-5.51-10.582-12.439 38.024-3.866z" fill="#BD8055"/><path d="M62.745 143.702l5.975 7.518 12.243 4.893 13.925-1.465 7.822-6.968-.909-7.872-.398-3.479-.595-7.984-3.731-3.422-11.828-2.071-9.802-1.61-5.868 2.576-.068.218-1.964 4.663-2.294 6.862-.107.426-2.401 7.715z" fill="#BD8055"/><path d="M62.745 143.696l5.133 7.289 15.026 4.242 14.767-1.061 5.044-6.486-.622-5.341-6.352 3.013-11.457.544-10.728-2.906-6.676-2.284-2.329-2.833-.522 1.739-1.284 4.084z" fill="#36312B"/><path d="M90.709 165.64l-14.398-5.611-7.3-7.518-7.82-14.526-7.132-5.415-10.654.208-3.62 6.402 1.213 8.713 7.4 6.812 20.221 6.721 22.09 4.214z" fill="#995F39"/><path d="M74.684 128.138l7.844 3.17 10.616 1.055 6.256-1.42 1.408-2.598-3.731-3.422-11.828-2.071-9.802-1.61-5.868 2.576 5.105 4.32z" fill="#D8A27D"/><path d="M406.295 106.34l-9.134 32.8-20.322 20.053-30.663 8.702-30.758-7.916-20.894-19.627-9.903-32.575 7.714-30.405 18.931-20.653 33.474-10.503 33.703 9.706 20.771 22.611 7.081 27.807z" fill="#D2923F"/><path d="M398.373 106.43l-7.945 28.531-17.674 17.443-26.673 7.569-26.752-6.884-18.173-17.074-8.613-28.334 6.711-26.443 16.467-17.96 29.114-9.14 29.317 8.444 18.06 19.666 6.161 24.182z" fill="#DAE1E4"/><path d="M317.208 151.091l1.975-8.797 5.481-7.743 22.286-8.102 13.101-.152 17.741 4.702 8.641 7.906-13.679 13.499-26.674 7.569-26.752-6.884-2.12-1.998z" fill="#D47B53"/><path opacity=".2" d="M323.206 136.615l.117 2.682 3.765 3.445 7.502 2.912 10.194.881 14.504-3.748 10.778-6.727 2.856-4.505-1.728-2.306-11.143-2.952-13.101.152-22.286 8.102-1.458 2.064z" fill="#F6F5F4"/><path opacity=".4" d="M332.346 131.762l.23 3.193 6.042 4.011 11.542-.134 10.441-7.115 1.324-4.926-1.874-.494-13.101.152-14.604 5.313z" fill="#36312B"/><path d="M326.14 104.326l-.566 12.691 6.082 15.351 4.46 3.294 5.841.953 6.856-1.167 11.126-5.683L365 119.273l.775-10.47-1.252-8.741-38.383 4.264z" fill="#D8A27D"/><path d="M373.933 368.861L349.33 421.86l-39.999 28.289-54.339 6.194-49.88-21.972-29.911-39.056-7.698-57.914 21.54-49.329 37.805-29.692 59.603-8.461 54.368 25.82 28.867 44.067 4.247 49.055z" fill="#D47B53"/><path d="M362.683 367.144l-21.921 47.225-35.639 25.209-48.421 5.516-44.437-19.582-26.651-34.792-6.856-51.608 19.189-43.948 33.681-26.455 13.336 8.478 10.291-11.833 29.478-4.186 48.443 23.01 25.726 39.264 3.781 43.702z" fill="#DAE1E4"/><path d="M197.128 405.745l12.551-16.635 16.109-5.779 41.306-1.442 22.768 3.473 29.428 13.219 13.421 21.483-27.588 19.514-48.42 5.516-44.437-19.582-15.138-19.767z" fill="#8FA7B0"/><path opacity=".2" d="M261.993 411.121l7.081-2.755 2.429 8.074.253 3.658-19.812 1.515-30.157-8.994-11.923-11.513-.185-11.996 9.072-3.254 7.036-2.525 10.066-.382 1.661 5.061.218 6.419 8.254 13.46 16.007 3.232z" fill="#F6F5F4"/><path opacity=".4" d="M289.861 385.362l29.429 13.219 13.421 21.483-27.588 19.514-38.967 4.438 5.684-18.274-.337-9.302-2.429-8.074-7.081 2.755-16.008-3.232-8.253-13.46-.393-11.502 52.522 2.435z" fill="#36312B"/><path d="M242.008 334.175l-9.887 20.019-1.941 15.951.084 12.417 7.205 11.266 11.995 5.729 18.448 1.122 11.845-3.692 14.223-11.272 8.652-16.31 4.163-14.959-64.787-20.271z" fill="#D8A27D"/><path opacity=".4" d="M237.575 343.158l5.796 5.223 19.166 10.481 21.17 6.144 4.41 5.852.039 11.788-6.918 13.168 12.742-10.099 8.652-16.31 4.163-14.959-64.787-20.271-4.433 8.983z" fill="#36312B"/><path d="M222.87 310.515l3.63 16.854 9.387 8.994 5.981 5.734 15.553 8.613 15.205 4.382 10.98-2.531 20.776-7.922-42.854-29.496-3.058-4.628-4.057-6.133-10.296-6.435-12.943.802-8.304 11.766z" fill="#BD8055"/><path d="M254.845 321.422l4.774 13.438 15.66 10.868 17.814 2.165 14.857-5.453.909-10.958 1.998-12.652 1.043-5.746.528-2.884-5.319-6.918-13.556-3.018-15.469-5.269-6.704 1.644-7.541 12.091-2.755 3.894-6.239 8.798z" fill="#BD8055"/><path d="M307.95 342.44l-13.27 6.144-9.7-1.061-11.43-4.135-12.876-6.239-6.419-6.918-1.172-6.329 5.992-8.45 2.48 6.363 8.046 6.817 12.562 5.263 4.438 1.088 2.441 7.07 6.014-5.521 7.126.011 6.368-1.33-.6 7.227z" fill="#36312B"/><path d="M257.42 350.71l20.856 2.732 13.628-4.202 20.479-12.243 14.279-.213 8.725 5.661.129 10.004-7.142 9.612-13.292 3.287-28.542-5.212-29.12-9.426z" fill="#995F39"/><path d="M271.38 296.639l.931 4.315-1.93 5.442 2.474 1.24 5.319-2.468 10.206 5.027 14.33 3.293 9.19-.404.528-2.884-5.319-6.918-13.556-3.018-15.469-5.269-6.704 1.644z" fill="#D8A27D"/><path d="M337.732 109.415l4.949 3.995 4.573.656 5.97-.606 3.955 1.93 3.064 6.8-.191 5.897-3.922 6.75-2.093 6.054.023 9.14 6.39-4.954 4.921 3.069 3.013-6.789 6.52-7.434 4.757-1.212-3.332-10.016-2.402-10.492-3.765-5.448-2.278-2.143-12.831 3.047-17.321 1.756z" fill="#6C4429"/><path opacity=".4" d="M326.332 110.245l3.551 1.173 11.429.51 15.598-1.84 5.594 2.317 5.414 6.29 2.2 11.412-.522 9.869 5.308-6.053 4.758-1.212-3.333-10.016-2.402-10.492-3.764-5.448-2.278-2.143-40.224 3.877-1.329 1.756z" fill="#36312B"/><path d="M323.189 106.851l-2.705 10.306.466 11.228 2.256 8.231 1.458-2.065 6.868-2.491-5.959-15.043.275-6.138 1.812-2.39-4.471-1.638z" fill="#6C4429"/><path d="M331.729 89.951l-6.166-3.978-6.834-.993-6.559 3.378-1.633 8.029 5.751 7.944 11.373 4.158 10.071.926 8.921-1.201 5.14-3.832 9.005-8.876-29.069-5.555z" fill="#995F39"/><path d="M222.87 310.515l3.63 16.854 9.387 8.994.011.006-6.469-9.982-1.235-14.29 9.202-8.265 10.425-.112 10.649 6.795-4.057-6.133-10.296-6.435-12.943.802-8.304 11.766z" fill="#D8A27D"/><path opacity=".2" d="M275.459 362.61l-.477 5.589-2.794 10.037-5.106 13.365-6.329 5.661-11.289 2.295-11.995-5.729-7.205-11.266-.084-12.416 1.941-15.952 5.454-11.036 5.796 5.224 19.649 10.621 12.439 3.607z" fill="#F6F5F4"/><path opacity=".15" d="M70.6 165.977l-2.587 5.773.174 10.688 5.414 10.481 7.014 5.549-7.103-.589-13.668-8.567-5.33-14.066.185-13.562.342-1.458 11.07 4.752 4.489.999z" fill="#F6F5F4"/><path opacity=".2" d="M39.202 187.006l-1.655 2.749v3.753l3.36 4.265 7.497 5.302 13.443 3.484 11.637 2.07h10.211l7.333-1.369 2.794-1.806-3.905-4.102-3.68 2.2-14.835-1.482-12.63-10.323-1.745-9.864-14.397 2.575-3.428 2.548z" fill="#F6F5F4"/><path opacity=".3" d="M367.8 142.664l2.833 4.057.679 6.093 1.442-.41 13.679-13.499-6.772-6.194-4.758 1.212-6.52 7.434-.583 1.307z" fill="#36312B"/><path d="M357.112 75.728l-4.315 3.933-6.267 1.913-8.259.101-4.736-1.52-.909-2.099 3.114-2.384 9.264-.802 7.748-1.532 4.36 2.39z" fill="#BD8055"/><path d="M330.798 89.345l-1.689 8.197-1.538-5.695-2.412-3.551-4.085-2.974 4.489.651 5.235 3.372z" fill="#6C4429"/><path d="M358.268 80.587l1.139 7.344.05.337 1.335 6.11-5.122 5.403-9.774 2.946-10.644-2.076-5.565-5.903 1.234-6.009.544-2.66 1.162-8.022 3.114-2.385 9.263-.802 7.748-1.532 4.36 2.39 1.156 4.859z" fill="#995F39"/><path d="M337.732 109.415l11.486-3.35 6.138-5.307 7.019-10.678 5.863-3.692 8.208.876 2.357 5.184-1.521 6.638-6.171 4.757-16.058 3.816-17.321 1.756z" fill="#6C4429"/><path opacity=".2" d="M332.626 78.056l.545 1.207 2.979 2.059 2.199-.18 1.886-2.059 2.766-1.386 5.397-.426 5.431-.78 1.42-.707 1.863-.056-4.36-2.39-7.748 1.532-9.264.802-3.114 2.385z" fill="#F6F5F4"/><path d="M252.909 192.583l-2.323 16.675-19.39 10.368-15.811-15.278 2.328-16.675 19.385-10.368 15.811 15.278z" fill="#7E7467"/><path d="M202.525 18.415l15.57 10.452.943 24.474-23.01 8.394-15.57-10.453-.942-24.474 23.009-8.393zm-100.83 313.101l-1.723 18.672-21.04 12.546-18.38-16.181 1.722-18.673 21.034-12.546 18.387 16.182zm327.424-94.12l-4.853 18.117-22.852 8.814-15.391-19.054 4.854-18.117 22.852-8.814 15.39 19.054z" fill="#635C4F"/></svg>