<svg width="448" height="486" fill="none" xmlns="http://www.w3.org/2000/svg"><path d="M163.225 59.53l6.014-1.533 5.015 1.39 4.159 4.057 1.541 5.577-.165.69-.417 1.77-.621 2.629-.621.655-.91.972-2.72 2.895-5.507 1.537-4.987-1.116-4.694-4.334-.94-3.838-.584-2.369.931-2.947.369-1.186.385-1.203 1.98-1.925 1.772-1.72z" fill="#E4A758"/><path opacity=".4" d="M161.454 61.25l11.519 4.001.388 4.163 6.011 2.066-.62 2.63-.621.654-8.428-2.842-.243-2.818-10.74-3.54.369-1.185.385-1.203 1.98-1.926z" fill="#F6F5F4"/><path d="M154.714 68.505l6.014-1.534 5.015 1.39 4.159 4.057 1.541 5.577-.165.69-.417 1.77-.621 2.63-.621.654-.911.972-2.719 2.895-5.507 1.537-4.987-1.116-4.694-4.334-.94-3.838-.584-2.369.931-2.947.369-1.186.385-1.203 1.98-1.925 1.772-1.72z" fill="#E4A758" fill-opacity=".5"/><path fill-rule="evenodd" clip-rule="evenodd" d="M149.886 75.56l-4.221 1.076-1.772 1.72-1.98 1.926-.385 1.202-.369 1.187-.931 2.947.584 2.368.94 3.838 4.694 4.335 4.987 1.115 5.507-1.537 2.719-2.895.911-.972.621-.655.574-2.43-1.283.358-4.987-1.116-4.694-4.334-.94-3.838-.584-2.369.609-1.926z" fill="#E4A758" fill-opacity=".25"/></svg>