<svg width="448" height="486" fill="none" xmlns="http://www.w3.org/2000/svg"><path d="M410.141 192.075l-1.443 6.036-3.566 3.791-5.527 1.791-5.653-1.233-.534-.468-1.371-1.193-2.038-1.774-.29-.854-.437-1.259-1.295-3.755 1.204-5.588 3.31-3.894 6.022-2.136 3.834.956 2.368.586 2.174 2.197.878.878.885.901.782 2.649.697 2.369z" fill="#E4A758"/><path opacity=".4" d="M409.444 189.706l-8.905 8.331-3.864-1.595-4.628 4.358-2.039-1.774-.29-.855 6.441-6.134 2.607 1.097 8.133-7.856.878.879.885.9.782 2.649z" fill="#F6F5F4"/><path d="M406.163 180.363l-1.444 6.036-3.565 3.791-5.527 1.791-5.653-1.233-.534-.468-1.371-1.193-2.038-1.773-.29-.855-.437-1.259-1.295-3.755 1.204-5.588 3.31-3.894 6.022-2.136 3.834.956 2.368.587 2.174 2.196.878.878.885.901.782 2.649.697 2.369z" fill="#E4A758" fill-opacity=".5"/><path fill-rule="evenodd" clip-rule="evenodd" d="M402.168 172.805l1.013-4.236-.697-2.369-.782-2.649-.885-.901-.878-.879-2.174-2.196-2.368-.587-3.834-.955-6.022 2.136-3.31 3.893-1.204 5.589 1.295 3.755.437 1.259.29.854 1.883 1.639.281-1.301 3.309-3.894 6.022-2.136 3.834.956 2.368.587 1.422 1.435z" fill="#E4A758" fill-opacity=".25"/></svg>