<svg width="448" height="486" fill="none" xmlns="http://www.w3.org/2000/svg"><path d="M363.319 302.762l-6.107 1.104-4.904-1.742-3.861-4.341-1.143-5.672.214-.678.542-1.734.805-2.58.666-.609.977-.905 2.918-2.695 5.602-1.143 4.895 1.466 4.376 4.656.665 3.895.415 2.404-1.138 2.874-.452 1.157-.469 1.172-2.111 1.781-1.89 1.59z" fill="#E4A758"/><path opacity=".4" d="M365.208 301.172l-11.207-4.807-.092-4.179-5.85-2.487.805-2.58.666-.609 8.205 3.433.044 2.828 10.462 4.291-.452 1.157-.469 1.172-2.112 1.781z" fill="#F6F5F4"/><path d="M372.445 294.413l-6.108 1.104-4.904-1.742-3.861-4.341-1.142-5.672.214-.677.541-1.735.806-2.579.665-.609.978-.906 2.917-2.695 5.602-1.143 4.895 1.466 4.376 4.656.666 3.895.414 2.404-1.137 2.874-.452 1.157-.469 1.173-2.112 1.78-1.889 1.59z" fill="#E4A758" fill-opacity=".5"/><path fill-rule="evenodd" clip-rule="evenodd" d="M377.761 287.718l4.286-.775 1.89-1.59 2.111-1.78.469-1.173.452-1.157 1.138-2.874-.415-2.404-.665-3.895-4.376-4.656-4.895-1.466-5.602 1.143-2.918 2.696-.977.905-.666.609-.744 2.383 1.304-.266 4.896 1.466 4.376 4.656.665 3.895.414 2.404-.743 1.879z" fill="#E4A758" fill-opacity=".25"/></svg>