<svg width="448" height="486" fill="none" xmlns="http://www.w3.org/2000/svg"><path d="M285.092 48.154l4.278 4.496 1.24 5.054-1.505 5.612-4.111 4.072-.683.193-1.747.5-2.597.746-.875-.222-1.293-.319-3.856-.956-4.033-4.052-1.465-4.896 1.485-6.214 2.888-2.697 1.781-1.667 3.026-.63 1.215-.258 1.237-.252 2.648.786 2.367.704z" fill="#E4A758"/><path opacity=".4" d="M282.725 47.45l2.144 12.004-3.441 2.374 1.137 6.254-2.598.745-.874-.222-1.642-8.74 2.339-1.592-2.165-11.098 1.215-.258 1.238-.253 2.647.786z" fill="#F6F5F4"/><path d="M273.101 45.118l4.279 4.496 1.24 5.054-1.505 5.612-4.111 4.071-.683.194-1.747.5-2.597.745-.875-.221-1.293-.32-3.856-.956-4.033-4.052-1.466-4.895 1.486-6.214 2.888-2.697 1.781-1.667 3.025-.63 1.215-.258 1.238-.252 2.648.785 2.366.705z" fill="#E4A758" fill-opacity=".5"/><path fill-rule="evenodd" clip-rule="evenodd" d="M264.587 44.356l-3.003-3.155-2.367-.705-2.648-.785-1.237.252-1.215.258-3.026.63-1.781 1.667-2.888 2.697-1.485 6.214 1.465 4.895 4.034 4.052 3.855.957 1.293.319.875.221 2.4-.688-.939-.943-1.465-4.896 1.485-6.214 2.888-2.697 1.781-1.667 1.978-.412z" fill="#E4A758" fill-opacity=".25"/></svg>