<svg width="448" height="486" fill="none" xmlns="http://www.w3.org/2000/svg"><path d="M272.657 218.399l-4.479-4.296-1.469-4.993 1.248-5.674 3.921-4.255.674-.224 1.722-.58 2.561-.862.883.181 1.307.26 3.895.78 4.214 3.864 1.687 4.823-1.201 6.276-2.762 2.825-1.703 1.747-2.994.766-1.202.314-1.225.308-2.681-.664-2.396-.596z" fill="#E4A758"/><path opacity=".4" d="M275.053 218.994l-2.688-11.894 3.329-2.528-1.42-6.196 2.56-.862.884.181 2.038 8.658-2.264 1.695 2.668 10.989-1.202.313-1.224.309-2.681-.665z" fill="#F6F5F4"/><path d="M284.773 220.886l-4.479-4.297-1.469-4.992 1.248-5.675 3.921-4.254.674-.225 1.722-.58 2.561-.862.884.182 1.306.259 3.895.78 4.214 3.864 1.687 4.824-1.201 6.275-2.762 2.826-1.703 1.747-2.994.766-1.202.313-1.225.309-2.681-.664-2.396-.596z" fill="#E4A758" fill-opacity=".5"/><path fill-rule="evenodd" clip-rule="evenodd" d="M293.314 221.258l3.143 3.016 2.396.596 2.681.664 1.225-.309 1.202-.313 2.994-.766 1.703-1.747 2.762-2.825 1.201-6.276-1.687-4.824-4.214-3.864-3.895-.779-1.306-.26-.884-.182-2.367.797.982.9 1.687 4.824-1.201 6.275-2.762 2.826-1.703 1.747-1.957.5z" fill="#E4A758" fill-opacity=".25"/></svg>