<svg width="448" height="486" fill="none" xmlns="http://www.w3.org/2000/svg"><path d="M167.896 244.823l6.047-1.4 4.983 1.501 4.067 4.149 1.417 5.609-.181.687-.456 1.759-.679 2.616-.635.64-.932.952-2.784 2.834-5.539 1.414-4.961-1.226-4.597-4.438-.854-3.858-.531-2.381.996-2.926.395-1.177.412-1.194 2.022-1.881 1.81-1.68z" fill="#E4A758"/><path opacity=".4" d="M166.087 246.503l11.427 4.256.295 4.17 5.964 2.199-.679 2.616-.635.64-8.362-3.029-.181-2.822-10.659-3.777.395-1.178.412-1.194 2.023-1.881z" fill="#F6F5F4"/><path d="M159.187 253.606l6.047-1.4 4.983 1.501 4.067 4.149 1.417 5.609-.181.687-.456 1.759-.679 2.615-.635.641-.932.952-2.784 2.834-5.539 1.414-4.961-1.227-4.597-4.437-.854-3.858-.531-2.381.996-2.926.395-1.177.412-1.194 2.022-1.881 1.81-1.68z" fill="#E4A758" fill-opacity=".5"/><path fill-rule="evenodd" clip-rule="evenodd" d="M154.203 260.551l-4.244.983-1.809 1.68-2.023 1.881-.411 1.194-.395 1.177-.997 2.926.531 2.381.854 3.858 4.598 4.437 4.96 1.227 5.54-1.414 2.783-2.834.932-.952.636-.641.627-2.417-1.29.33-4.961-1.227-4.597-4.437-.854-3.858-.531-2.381.651-1.913z" fill="#E4A758" fill-opacity=".25"/></svg>