<svg width="448" height="486" fill="none" xmlns="http://www.w3.org/2000/svg"><path d="M54.256 261.976l2.451-5.702 4.16-3.128 5.751-.822 5.36 2.178.447.552 1.147 1.409 1.706 2.096.14.891.216 1.315.636 3.921-2.14 5.301-3.924 3.273-6.298 1.078-3.615-1.595-2.233-.982-1.768-2.535-.715-1.015-.72-1.039-.318-2.743-.283-2.453z" fill="#E4A758"/><path opacity=".4" d="M54.539 264.428l10.194-6.691 3.536 2.231 5.303-3.505 1.706 2.095.14.892-7.391 4.946-2.382-1.525-9.353 6.355-.715-1.016-.72-1.038-.318-2.744z" fill="#F6F5F4"/><path d="M56.18 274.194l2.45-5.702 4.16-3.127 5.751-.823 5.36 2.178.447.553 1.148 1.409 1.706 2.095.14.891.215 1.315.637 3.921-2.14 5.301-3.924 3.273-6.298 1.078-3.615-1.595-2.234-.982-1.768-2.534-.715-1.016-.719-1.038-.319-2.744-.283-2.453z" fill="#E4A758" fill-opacity=".5"/><path fill-rule="evenodd" clip-rule="evenodd" d="M58.827 282.322l-1.72 4.002.282 2.453.32 2.744.718 1.038.715 1.016 1.768 2.534 2.234.982 3.615 1.595 6.298-1.078 3.924-3.272 2.14-5.302-.636-3.921-.216-1.315-.14-.891-1.577-1.936-.498 1.234-3.925 3.273-6.298 1.078-3.615-1.595-2.233-.982-1.156-1.657z" fill="#E4A758" fill-opacity=".25"/></svg>