<svg width="442" height="457" fill="none" xmlns="http://www.w3.org/2000/svg"><path d="M307 108.5l8 24L121.5 187l-9-27.5 23.5-8c15.333-5 47.2-15.3 52-16.5 4.8-1.2 36-12.5 51-18l51.5-17.5 13-4 1.5 5.5 2 7.5z" fill="#CDC081"/><path d="M294 120v-8l-7.5 1.5-28.5 9-60 18.5-28.5 9.5L123 168l175.5-35-1.5-8-3-5z" fill="#94863A"/><path d="M327 190.5l3-3-9-35-5.5-24H312l-14 3-66 13L115 168l-23 3.5v2.5l2 10 5.5 14.5L103 210l3 14 2 7.5h3l12-4 189-40 3.5 3 3.5 1.5 4.5-1.5h3.5z" fill="#CDC081"/><path d="M310.5 175l3.5 17.5-1.5 3h-5l-11 2-149 28.5-23.5 3.5-1.5-5-6.5-25-4.5-20.5 15.5-2c26.167-5 79.6-15.2 84-16 5.5-1 64-12 66.5-12.5 2-.4 17.833-4.167 25.5-6v3l2 5 5.5 24.5z" fill="#94863A"/></svg>