<svg width="442" height="457" fill="none" xmlns="http://www.w3.org/2000/svg"><path d="M89 142.5l-8 24L274.5 221l9-27.5-23.5-8c-15.333-5-47.2-15.3-52-16.5-4.8-1.2-36-12.5-51-18l-51.5-17.5-13-4L91 135l-2 7.5z" fill="#CDC081"/><path d="M102 154v-8l7.5 1.5 28.5 9 60 18.5 28.5 9.5L273 202 97.5 167l1.5-8 3-5z" fill="#94863A"/><path d="M69 224.5l-3-3 9-35 5.5-24H84l14 3 66 13L281 202l23 3.5v2.5l-2 10-5.5 14.5L293 244l-3 14-2 7.5h-3l-12-4-189-40-3.5 3L77 226l-4.5-1.5H69z" fill="#CDC081"/><path d="M85.5 209L82 226.5l1.5 3h5l11 2 149 28.5 23.5 3.5 1.5-5 6.5-25 4.5-20.5-15.5-2c-26.167-5-79.6-15.2-84-16-5.5-1-64-12-66.5-12.5-2-.4-17.833-4.167-25.5-6v3l-2 5-5.5 24.5z" fill="#94863A"/></svg>