<svg width="442" height="457" fill="none" xmlns="http://www.w3.org/2000/svg"><path d="M263.526 81.874l13.293 21.525-175.833 97.442-15.07-24.702 21.038-13.178c13.777-8.385 42.43-25.721 46.827-27.99 4.397-2.27 32.172-20.427 45.51-29.222L245.402 76.9l11.735-6.876 2.722 5.01 3.667 6.84z" fill="#CDC081"/><path d="M253.512 96.05l-1.836-7.786-6.956 3.18-25.674 15.299-54.155 31.773-25.56 15.786-41.245 27.702 162.788-74.333-3.295-7.442-4.067-4.179z" fill="#94863A"/><path d="M301.807 157.098l2.231-3.608-16.79-32.002-10.86-22.097-3.406.803-12.939 6.132-61.256 27.796L90.3 183.839l-21.584 8.684.574 2.433 4.24 9.274 8.681 12.852 6.045 10.39 6.132 12.938 3.668 6.841 2.92-.688 10.762-6.647 174.78-82.296 4.095 2.117 3.751.657 4.036-2.493 3.407-.803z" fill="#CDC081"/><path d="M282.19 145.797l7.422 16.231-.771 3.264-4.867 1.147-10.248 4.47-138.486 61.926-22.07 8.799-2.607-4.523L98.5 214.269l-9.083-18.92 14.627-5.503c24.322-10.871 73.99-33.058 78.089-34.846 5.123-2.235 59.539-26.364 61.858-27.424 1.855-.848 16.401-8.147 23.443-11.691l.688 2.92 3.094 4.408 10.974 22.584z" fill="#94863A"/></svg>