<svg width="442" height="457" fill="none" xmlns="http://www.w3.org/2000/svg"><path d="M422.296 37.828l-2.443-7.096-3.693-4.958-1.274-1.706-2.493-1.799-2.971-2.14-.491-.356-3.085-1.21-4.047-1.585-7.963-.75-6.032 1.34-6.584 2.955-5.164 4.575-4.02 5.637-2.484 6.898L369 46.19l2.298 6.926.775 2.338.827 1.2 2.082 3.03.994 1.447 2.693 2.138 3.81 3.027 5.319 2.523L397.257 70l8.438-1.931 7.92-4.536 4.652-5.127 3.237-6.149 1.258-7.176-.475-7.253h.009zm-4.343 13.161l-2.783 5.294-4.005 4.415-6.827 3.906-7.266 1.663-8.148-1.018-4.584-2.172-3.055-2.425-2.548-2.02-1.098-1.602-2.083-3.033-.176-.256-1.172-3.532-1.475-4.446.472-7.37 2.138-5.943 3.465-4.856 4.449-3.94 5.67-2.545 5.196-1.154 6.858.645 2.033.8 3.693 1.446.42.164 2.631 1.897 2.496 1.802 1.271 1.703 3.008 4.035 2.104 6.112.408 6.247-1.089 6.18-.003.003z" fill="#E5A757"/><path d="M409.274 35.767l-1.068 1.977 1.068 1.136v3.017h-11.545l-1.718-1.425-1.528 1.425h-5.38l-1.472.768-.669 1.438.706 1.595.88.42.681.32 6.291-.021 13.751-.053v1.688l-1.068 1.978 1.068 1.135v2.733h-4.986v4.95h-5.334v-4.95h-4.35v4.95h-5.338v-4.95h-2.884c-.84 0-2.614-.675-2.614-.675l-1.295-1.024-1.703-1.346-.79-1.277-1.145-1.848-.358-1.79-.398-1.992.729-4.02 2.236-3.36 2.743-1.694 2.82-.49h2.659V28.93h5.338v5.094h.928l3.425.018V28.93h5.334v5.134l3.573.015 1.413.006v1.688-.006z" fill="#E5A757"/><path d="M396.862 27.048v5.032l-2.258 1.934v-5.09l2.258-1.876zm9.688 0v5.032l-2.262 1.934v-5.09l2.262-1.876zm5.091 5.032v2.527l-.923 1.947.923.52v2.392l-2.367 2.428V38.88l-1.07-1.136 1.07-1.977v-1.688l2.367-1.999zm0 12.282v2.524l-.923 1.947.923.521v2.147l-2.367 2.391V51.16l-1.07-1.136 1.07-1.977V46.36l2.367-1.999zm-17.037 14.479l1.947-2.323v-2.626h-1.947v4.949zm9.684 0l1.74-2.635v-2.314h-1.74v4.949z" fill="#BD7F2B"/><path d="M381.048 36.557s2.024-2.163 2.082-2.2l1.966-1.253 1.406-.521 1.657-.213h1.108v2.002h-2.66l-2.82.49-2.742 1.695h.003zm8.219-7.633l2.69-1.876h4.905l-2.258 1.876h-5.337zm9.687 0l2.69-1.876h4.906l-2.262 1.876h-5.334zm-2.092 3.156l-2.258 1.934h4.35V32.08h-2.092zm7.426 1.934l4.986.065 2.366-1.999h-5.09l-2.262 1.934zm7.352 10.348h-21.491l-.882-.716-.364-1.002.203-.75-1.471.768-.67 1.438.707 1.595 1.564.74 20.038-.074 2.366-1.999z" fill="#FCE5BF"/><path d="M373.202 38.392l-.472 7.368 2.647 7.978 3.36 4.89 5.603 4.449 4.584 2.169 8.148 1.02 7.263-1.662 6.827-3.906 4.005-4.415-3.169 2.465-6.935 2.697-6.313 1.653h-5.26l-6.324-1.996-3.357-2.28-3.742-3.227-2.521-4.291-2.03-5.927-.034-6.83 1.478-6.92 2.323-3.801 3.971-4.169-4.449 3.937-3.462 4.856-2.141 5.942z" fill="#FCE5BF"/><path d="M375.507 43.532l-.022-4.985 1.475-6.92 2.323-3.801 3.971-4.169-4.446 3.937-3.465 4.856-2.138 5.942-.429 6.68a41.546 41.546 0 012.734-1.537l-.003-.003z" fill="#BD7F2B"/><path d="M424.95 44.158l-1.16 6.371-1.552 3.64-3.961 4.234s0-.01.006-.012l3.227-6.13 1.259-7.177-.476-7.253-2.443-7.096-4.967-6.664-5.955-4.295-7.132-2.798-7.963-.75-6.032 1.34-6.584 2.955-5.164 4.575-4.017 5.634 2.314-4.341 2.925-4.214 7.959-5.767s10.842-2.366 11.017-2.41c.173-.04 8.778 1.337 9.191 1.337.414 0 6.942 2.968 6.942 2.968l5.248 4.877 4.646 6.02 2.194 6.873.472 8.087.006-.004z" fill="#FCE5BF"/><path d="M422.574 42.092l.194 2.992-1.258 7.176-3.227 6.13-.007.013 3.962-4.233 1.552-3.64 1.16-6.372-.219-3.714a17.036 17.036 0 01-2.157 1.644v.004z" fill="#BD7F2B"/><path d="M375.556 53.994L372.9 56.65l-.827-1.2-.775-2.335 2.907-2.91 1.172 3.533.179.256zm19.977-19.976L379.98 49.57l-1.144-1.848-.355-1.79 16.123-16.126v4.208l.929.004zm5.093-5.098l-1.672 1.676v-1.675h1.672zm8.793-8.792l-2.718 2.721-3.693-1.45 2.838-2.835 3.086 1.21.487.354zm-28.134 40.521l-2.613 2.616-2.696-2.138-.994-1.447 2.657-2.653 1.098 1.601 2.548 2.02zm14.238-14.239l-7.481 7.482h-1.663c-.84 0-2.613-.675-2.613-.675l-1.296-1.025 6.078-6.078.681.321 6.291-.021.003-.003zm12.338-12.337l-7.821 7.821h-2.311l-1.715-1.425-1.527 1.425h-1.716l11.517-11.52v3.684l3.573.015zm8.299-8.296l-2.641 2.638-1.271-1.703-2.496-1.802 2.641-2.64 2.493 1.8 1.274 1.707z" fill="#F5C989"/></svg>