<svg width="442" height="457" fill="none" xmlns="http://www.w3.org/2000/svg"><path d="M276.37 285.98l-5.31-6.81-5.7-4.64-9.97-5.19s-11.25-3.29-13.67-3.29h-48.36l-6.77-3.21-3.07-6.91 2.91-6.23 6.37-3.33h23.34l6.61-6.19 7.45 6.19h38.05v-13.08l-4.64-4.92 4.64-8.58v-7.31l-38.61-.28v-22.07H193.5v23.62h-11.53l-12.22 2.13-11.89 7.35-9.7 14.57-3.16 17.43 3.28 16.4 6.19.54-2.32 5.71 4.51 7.3 13 10.27s7.69 2.94 11.33 2.94h23.48l5.34-7.17 5.62 5.9h21.23l7.59 3.09 2.39 5.9-2.3 7.17-7.68 4.22h-57.43l-4.05 3-3.29-3H154v31.35l19.96-.14 5.2-5.76 5.48 5.76h9v22.78h35.99v-23.76h11.95c5.16 0 14.95-3.82 14.95-3.82l9.35-6.89 7.36-9.52 5.21-12.63 1.78-13.97-3.88-14.93.02.01z" fill="#B19C42"/><path d="M229.63 371.49v-23.76h9.14v13.23l-9.14 10.53zM239.44 182v21.82l-9.81 8.38v-22.07l9.81-8.13zm39.07 21.82v10.95l-4 8.43 4 2.27v10.36l-10.26 10.53v-13.07l-4.64-4.92 4.64-8.58v-7.31l10.26-8.66z" fill="#7C6A2E"/><path d="M287.24 298.1l-.58 11.54-3.93 8.94-9.48 8.93 5.21-12.63 1.78-13.96-3.88-14.94-5.3-6.81-5.7-4.64-9.97-5.19s-11.25-3.29-13.67-3.29h-48.36l-6.78-3.21-3.07-6.91 2.91-6.24 6.37-3.32h2.01l-3.09 4.51v2.84l4.01 3.34 7.52.17h10.2l16.19-.5 15.15 1.25 12.29 2.43 11.79 6.52 11.39 10.69 5.66 10.54 1.33 9.94zm-129.38-74.88s8.77-9.38 9.02-9.54l8.53-5.43 6.1-2.26 7.19-.92h4.8v8.68h-11.53l-12.22 2.13-11.89 7.35v-.01zm35.64-33.09l11.67-8.13h34.27l-9.81 8.13H193.5zm36.13 22.07l9.81-8.38h39.07l-10.26 8.66-38.62-.28z" fill="#DFD7B0"/><path d="M154 317.51l9.18-8.68h11.02l3.68 2.2 3.39-2.2h51.38l5.25-.85 2.33-2.66v-2.88l-1.46-2.67-2.11-2.65 7.59 3.09 2.4 5.91-2.31 7.16-7.68 4.23h-57.43l-4.05 3-3.29-3H154z" fill="#DFD7B0"/><path d="M186.59 262.83l4.99 2.37-26.57 26.57-8.35-6.6-1.83-2.96 30.78-30.77-2.09 4.48 3.07 6.91zm57.91-50.55l-34.08 34.08H192.8l-4.42 2.31 41.25-41.25v4.78l14.87.08zm34.26 82.9l-76.31 76.31h-8.81v-3.61l82.37-82.37.36.47 2.39 9.2zm-76.52 22.32h33.54l-42.14 42.14v-10.93h-9l-5.48-5.76-5.2 5.76h-2.93l31.21-31.21zm44.15-10.61l.25-.78-2.39-5.9-7.59-3.09h-14.04l28.88-28.88c2.21.6 3.89 1.09 3.89 1.09l9.97 5.2 5.7 4.63 1.34 1.72-26.01 26.01z" fill="#CDC081"/></svg>