<svg width="442" height="457" fill="none" xmlns="http://www.w3.org/2000/svg"><path d="M58.439 223.337l5.895 30.229 14.369 8.246-7.632 13.44 21.387 105.723s3.965 12.825 5.807 16.492c1.842 3.667 6.72 12.229 6.72 12.229l12.527 2.14 22.614-10.386 34.528-9.158 59.283-13.141 48.897-9.159 33.914-5.491 34.23-7.334 23.527-7.035 9.474-6.72 1.228-10.702-4.281-23.527-10.386-29.335-7.632-30.562-16.492-51.336-9.772-43.388-7.334-12.825-14.053-6.719-15.58 1.526-35.44 9.772-45.827 13.439-51.335 12.826-39.423 11.912s-30.86 7.036-32.387 7.632c-1.526.597-29.036 7.632-29.036 7.632l-8.474 5.948-1.176 7.79 1.93 9.807-.07.035z" fill="#BD8056"/><path d="M385.172 332.71l-1.228 10.685-9.474 6.719h-.175c-2.176.264-26.37 3.246-28.633 3.088-2.369-.14-24.475-2.509-28.405-3.14-3.965-.632-28.106-6.948-29.071-7.106-.93-.158-27.475-12.316-27.931-12.316-.456 0-21.159-13.58-21.159-13.58s-30.317-21.141-30.949-21.615c-.631-.473-29.527-9.947-29.527-9.947s-27.633-3.632-28.914-3.632c-1.281 0-25.72 2.842-25.72 2.842l-32.528 11.527-15.106 5.246-5.316-26.229 7.632-13.457-14.351-8.246-5.86-30.089-.035-.14-1.93-9.808 1.175-7.807 8.474-5.93s27.493-7.036 29.019-7.65c1.526-.596 32.387-7.632 32.387-7.632l39.423-11.93 51.336-12.825 45.844-13.439 35.44-9.773L315.169 135l14.054 6.702 7.333 12.843 9.773 43.387 2.315 7.229 14.176 44.089 7.65 30.563 10.386 29.335 4.281 23.527.035.035z" fill="#D8A27D"/><path d="M348.679 205.196l-30.001-6.263-7.527-8.246-17.387-10.755-30.773 8.544-18.422-5.842-32.685 8.053-44.774 4.245-17.299 7.632h-14.702l-27.458 13.65-37.598 8.351-11.544-1.07-.035-.14-1.93-9.808 1.175-7.807 8.474-5.93s27.493-7.036 29.02-7.65c1.526-.596 32.387-7.632 32.387-7.632l39.422-11.93 51.336-12.825 45.844-13.439 35.44-9.772 15.58-1.527 14.053 6.702 7.333 12.843 9.773 43.388 2.316 7.228h-.018z" fill="#E8C3AB"/><path d="M267.202 241.303l-4.228 14.07v10.422l4.983 15.58 6.509 11.07 12.456 9.509 14.72 3.474 15.212 1.141 34.738-7.053 12.246-5.141 10.544-3.561-3.526-8.931-82.933-49.405-20.721 8.825z" fill="#BD8056"/><path d="M385.172 268.62l-9.667-40.423-5.176-4.263 3.123-8.527-3.947-20.843-31.739 1.737-23.667 5.369-6.334 8.509-11.509-.93-16.896 14.211-5.052 19.422 3.789 20.843 11.685 18.79 21.317 5.527 20.983-3.79 15.58-5.527 17.702-5.456 19.808-4.649z" fill="#BD8056"/><path d="M331.135 248.742l-1.404 9.912-4.263 8.509-10.509 3.088H303.45l-9.58-4.438-2.719-13.405 3.018-11.877-.299 10.105s3.632 9.931 3.79 10.422c.158.474 8.685 4.421 11.369 4.737 2.684.316 15.79-3.632 16.264-3.79.473-.158 5.842-13.263 5.842-13.263z" fill="#58351D"/><path d="M331.135 248.724l-1.404-14.053-12.018-7.264-15.474 3-8.071 10.106-.298 10.106s3.632 9.948 3.79 10.421c.158.474 8.684 4.422 11.369 4.737 2.684.316 15.79-3.631 16.264-3.789.473-.158 5.842-13.264 5.842-13.264z" fill="#F4E3D7"/><path d="M385.172 268.62l-7.281 11.211-21.633 6.316s-17.211 6.018-19.579 6.947c-2.369.948-14.212 3.158-14.685 3.316-.456.158-17.369 1.895-17.369 1.895l-12.457-3.158-13.895-9.614-7.738-14.054-4.737-14.527 1.439-15.632 12.141-17.843-5.053 19.422 3.807 20.843 11.685 18.791 21.299 5.509 21.001-3.79 15.58-5.527 17.702-5.456 19.79-4.649h-.017zm-1.228 74.775l-6.948 14.123-15.158 5.614-24.685 6.457-22.177 5.895-25.826 4.772-29.194 5.334-27.51 4.491-33.966 7.86-24.685 7.018-26.949 8.14-18.527 6.738-17.685 4.491-12.632-6.456-8.14-12.071-6.176-29.194-7.036-21.317s-7.86-38.738-9.246-39.581c-1.42-.842-6.193-34.527-6.193-34.527l6.193-11.492-10.912-5.351-2.65-10.93L50 228.986v-13.193l7.684-10.053-1.175 7.807 1.93 9.808 5.877 30.229 14.352 8.246-7.632 13.457L92.423 381.01s3.983 12.826 5.807 16.51c1.842 3.649 6.72 12.228 6.72 12.228l12.527 2.123 22.615-10.386 34.527-9.176 59.266-13.141 48.897-9.176 33.913-5.509 34.23-7.333 23.51-7.036 9.474-6.719h.035z" fill="#58351D"/><path d="M374.382 350.132l-15.176 4.544-10.176 1.877-15.369.825-13.983-1.755-1.895-1.754-3.614.789-27.265-5.754-18.965-8.229s-15.177-8.702-15.545-8.948c-.386-.245-15.509-8.842-15.878-9.158-.403-.316-12.176-8.123-12.176-8.123s-11.544-7.842-11.93-7.895c-.404-.07-19.738-8.913-19.738-8.913l-3.719-3.035h-3.597l-10.386-1.298-13.457-3.597h-15.001l-13.983 1.281-10.632 1.439-13.193 5.859-2.895-.649-1.474 1.86-16.264 5.176-10.263 4.123-1.474-7.316 15.106-5.246 32.528-11.527s24.474-2.842 25.72-2.842c1.246 0 28.913 3.631 28.913 3.631s28.896 9.475 29.528 9.948c.614.474 30.949 21.615 30.949 21.615s20.685 13.58 21.158 13.58c.474 0 27.002 12.158 27.931 12.316.948.158 25.107 6.474 29.072 7.106 3.947.631 26.036 3 28.405 3.14 2.263.158 26.457-2.825 28.632-3.088h.088l.018.018z" fill="#85502E"/><path d="M368.429 298.065l-2.993 1.06 1.594 4.498 2.993-1.06-1.594-4.498zm3.427 23.697l-1.754-9.702-.649-1.824 3-1.053.754 2.175 1.79 9.843-3.141.561zm.123 20.387l-1.842-2.596 3.316-2.351.456-4.036 3.158.369-.614 5.439-4.474 3.175zm-30.09 2.755a960.912 960.912 0 01-9.702-1.035l.351-3.158c3.509.386 7.035.754 9.685 1.035l-.316 3.158h-.018zm10.018-.141l-.333-3.158c2.281-.245 5.404-.596 9.649-1.087l.369 3.158c-4.263.491-7.386.842-9.685 1.087zm-29.44-2c-1.842-.228-3.263-.403-3.965-.526-.772-.123-2.666-.561-5.807-1.316l.755-3.088c3.754.913 5.087 1.193 5.561 1.263.684.106 2.053.281 3.842.509l-.386 3.158zm-19.228-4.193l-9.439-2.386.772-3.088 9.439 2.386-.772 3.088zm-18.808-5.86c-2.72-1.21-5.843-2.614-8.369-3.754l-.526-.228 1.298-2.895.526.245c2.509 1.123 5.632 2.527 8.352 3.755l-1.299 2.912.018-.035zm-17.755-7.947c-1.176-.509-2.106-.913-2.86-1.211l-.211-.105c-.789-.456-2.684-1.667-5.631-3.562l1.719-2.667c2.754 1.772 4.614 2.948 5.421 3.422.755.298 1.667.701 2.825 1.193l-1.281 2.912.018.018zm-16.878-10.176a1884.349 1884.349 0 01-6.246-4.088l-1.913-1.334 1.825-2.614 1.877 1.299a1665.29 1665.29 0 016.194 4.052l-1.737 2.667v.018zm-16.141-10.983l-7.983-5.579 1.825-2.615 7.982 5.58-1.824 2.614zm-15.983-11.159c-2.667-1.877-4.474-3.14-4.808-3.386-.438-.333-.842-.631-3.105-1.491l1.123-2.965c2.281.86 3.035 1.281 3.86 1.895.315.228 2.105 1.491 4.754 3.333l-1.824 2.614zm-119.953-6.842l-1.07-3 9.176-3.246 1.07 3-9.176 3.246zm102.917-1.193a1255.63 1255.63 0 00-9.211-3.053l1-3.017c3.702 1.228 6.737 2.228 9.228 3.07l-1.017 3.017v-.017zm-84.565-5.316l-1.07-3 6.614-2.299 3.07-.35.369 3.158-2.878.333-6.105 2.158zm66.108-.79l-1.807-.596-7.474-.983.403-3.158 7.913 1.071 1.947.631-.982 3.018v.017zm-18.913-2.807a761.45 761.45 0 00-9.632-1.193l.368-3.158c2 .228 5.018.597 9.667 1.193l-.403 3.158zm-28.563 0l-.368-3.158c4.403-.509 7.491-.842 9.667-1.07l.333 3.158c-2.175.228-5.263.579-9.649 1.07h.017zm-50.545 8.422l-3.123.631 1.316 6.457 3.052-.93-1.245-6.158zm-4.685-5.597l-1.316-6.439 3.106-.632 1.333 6.439-3.123.632zm-7.439-27.475l-1.649-7.755 3.123-.614 1.65 7.773-3.124.596zM70.03 224.52l-3.117.606 1.746 8.972 3.117-.606-1.746-8.972z" fill="#E8C3AB"/><path d="M65.141 216.196l-.561-2.842.473-3.07 4.492-3.141.438-.122.65 2.193.49.701-3.14 2.194-.175 1.175.456 2.298-3.123.614zm15-8.509l-.789-3.07c3.825-.982 6.86-1.772 9.264-2.421l.807 3.07c-2.422.632-5.457 1.439-9.282 2.421zm18.545-4.982l-.877-3.053c.982-.281 4.141-1.053 9.404-2.281l.719 3.088c-6.491 1.526-8.614 2.053-9.263 2.246h.017zm18.615-4.422l-.719-3.105c3.14-.719 6.351-1.474 9.351-2.158l.702 3.105c-3 .685-6.211 1.422-9.352 2.141l.018.017zm18.703-4.702l-.93-3.035 9.176-2.772.929 3.035-9.175 2.772zm18.351-5.561l-.912-3.035 9.176-2.772.912 3.035-9.176 2.772zm18.317-5.404l-.772-3.088 9.298-2.316.772 3.088-9.298 2.316zm18.597-4.649l-.772-3.088 9.299-2.316.772 3.088-9.299 2.316zm138.252-4.071l-2.106-9.351 3.106-.702 2.105 9.352-3.105.701zm-119.655-.579l-.772-3.087 9.299-2.334.772 3.088-9.299 2.333zm18.58-4.965l-.895-3.052 9.194-2.702.894 3.052-9.193 2.702zm18.404-5.386l-.894-3.053 9.193-2.701.895 3.052-9.194 2.702zm18.405-5.386l-.895-3.053 2.035-.596 7.228-2 .843 3.07-9.211 2.579zm59.3-1.597l-3.263-5.719-1.807-.86 1.368-2.877 2.702 1.281 3.755 6.596-2.755 1.579zm-40.861-3.526l-.842-3.07 9.246-2.544.842 3.07-9.246 2.544zm18.229-4.983l-.316-3.158 9.544-.93.316 3.158-9.544.93zm32.801 35.113l-3.098.698 1.049 4.655 3.098-.697-1.049-4.656z" fill="#D8A27D"/><path d="M270.747 351.009c-2.807-1.07-6.141-2.316-9-3.386l1.105-2.983c2.86 1.071 6.211 2.316 9.018 3.386l-1.123 2.966v.017zm-18.089-7.404c-1.965-1.263-4.965-3.193-8.105-5.193l1.719-2.684c3.141 2 6.158 3.93 8.106 5.193l-1.72 2.684zm-16.228-10.333c-3.562-2.228-4.211-2.597-4.316-2.65-.158-.052-.351-.105-3.895-2.526l1.789-2.632c2.492 1.72 3.176 2.141 3.351 2.229.299.122 1.018.526 4.755 2.877l-1.684 2.684v.018zm-16.142-10.668c-2.754-1.929-5.579-3.894-7.895-5.526l1.825-2.597c2.316 1.632 5.123 3.597 7.877 5.527l-1.824 2.614.017-.018zm-15.808-10.403a2929.68 2929.68 0 00-8.79-3.878l1.264-2.912c3.175 1.386 6.509 2.86 8.825 3.877l-1.281 2.913h-.018zm-92.899-11.497l-9.025 3.262 1.079 2.986 9.026-3.262-1.08-2.986zm75.39 3.987c-.93-.28-4.036-1.087-9.264-2.421l.79-3.088c5.263 1.334 8.421 2.158 9.386 2.457l-.912 3.052zm-56.656-8.796l-9.348 2.173.719 3.093 9.348-2.173-.719-3.093zm38.076 4.024l-4.649-1.158-4.492-.193.123-3.175 4.983.245 4.825 1.193-.79 3.088zm-28.198-5.31l-.13 3.173 9.589.392.13-3.173-9.589-.392zm-6.869 93.129l-8.901 4.283 1.377 2.862 8.901-4.284-1.377-2.861zm19.806-3.703l-9.774 1.428.459 3.142 9.774-1.427-.459-3.143zM296.053 354.7l-.182 3.171 9.861.568.183-3.17-9.862-.569zm-123.884 24.792l-9.522 2.625.844 3.061 9.522-2.625-.844-3.061zm10.381.466l-.86-3.071 4.597-1.263 5-1.245.772 3.087-4.965 1.246-4.544 1.246zm27.927-10.421l-9.583 2.393.769 3.081 9.584-2.393-.77-3.081zm19.471-3.933l-9.742 1.63.524 3.132 9.742-1.63-.524-3.132zm19.493-3.261l-9.742 1.631.524 3.132 9.742-1.631-.524-3.132zm27.583-8.476l-.105 3.174 9.872.326.105-3.174-9.872-.326zm-17.295 9.985l-.527-3.141 8.351-1.386 1.509-.158.316 3.158-1.404.141-8.245 1.386zm-144.041 33.141h-5.544l-3.404-4.368 2.509-1.965 2.456 3.158h3.983v3.175zM89.09 316.376l.351-5.544 4.597-3.105 1.79 2.614-3.299 2.246-.263 3.982-3.176-.193zm15.08 58.61l-3.117.608 1.683 8.627 3.117-.608-1.683-8.627zm-4.817-7.976l-1.631-8.65 3.123-.579 1.631 8.615-3.123.614zm-1.734-26.484l-3.122.583 1.612 8.64 3.122-.582-1.612-8.641zm-3.586-17.249l-3.101.68 1.884 8.586 3.102-.681-1.885-8.585z" fill="#E8C3AB"/></svg>