<svg width="496" height="502" fill="none" xmlns="http://www.w3.org/2000/svg"><path d="M175.157 313.587s6.257-6.168 8.843-9.587v-94c-3.28-4.322-11.412-11.5-11.412-11.5l-8.088-4.467-7.099-4.808-4.825-1.961-7.706-3.124-.538-.209-8.832-2.431-7-1s-4.244-.467-6.5-.467c-.469 0-1.031-.017-1.5 0-.764.017-1.754-.035-2.5 0-1.406.069-2.565-.139-3.954 0L114 217l12.23.539 10.587 3.176 3.437 1.042s6.23 3.801 8.886 6.283l8.261 9.96 4.044 13.783.365 5.397-3.176 13.621s-4.287 8.053-7.342 11.368l-9.303 7.498C137.876 292.062 128.5 294 128.5 294l-6.5 2h-8v38h8l5-.5 4.402-.328 2.465-.556 9.719-2.204 3.089-.694 15.152-7.012 13.33-9.119z" fill="#E6A859"/><path d="M140.253 221.757s6.231 3.801 8.887 6.283l8.261 9.96 4.044 13.782-4.044-7.282-7.401-7-8-5-12-3.5-8-1h-7.954L114 217l12.23.539 10.587 3.176 3.436 1.042zm34.904 91.515l-13.33 9.378-15.152 6.997L131.5 333l-10 1H114v9h7.5l9.902-1.049 15.273-2.471 15.152-7.012 13.33-10.118s6.257-5.948 8.843-9.35v-9c-2.586 3.402-8.843 9.272-8.843 9.272z" fill="#BA8143"/></svg>