<svg width="496" height="502" fill="none" xmlns="http://www.w3.org/2000/svg"><g filter="url(#filter0_d_1109_95911)"><path d="M368.364 362.396H305.31c-5.733 0-10.379 4.647-10.379 10.379v63.055c0 5.732 4.646 10.379 10.379 10.379h63.054c5.732 0 10.379-4.647 10.379-10.379v-63.055c0-5.732-4.647-10.379-10.379-10.379z" fill="#F6F5F4"/></g><path d="M351.893 382.842v44.067a5.162 5.162 0 01-5.172 5.172H326.97a5.162 5.162 0 01-5.172-5.172v-44.067a5.174 5.174 0 015.172-5.172h19.751c1.267 0 2.447.469 3.35 1.25a5.116 5.116 0 011.822 3.922z" fill="#C0CDD2"/><path d="M351.893 422.483v4.426a5.162 5.162 0 01-5.172 5.172H326.97a5.162 5.162 0 01-5.172-5.172v-4.426h30.095z" fill="#635C50"/><path opacity=".5" d="M351.893 382.842v7.671l-26.763 31.97h-3.332v-10.275l28.273-33.288a5.116 5.116 0 011.822 3.922zm-8.591-5.172l-21.522 26.728v-7.619l13.902-19.109h7.62z" fill="#E9EFEF"/><path d="M336.828 429.668a2.378 2.378 0 100-4.755 2.378 2.378 0 000 4.755z" fill="#EBE8E4"/><path d="M331.495 361.719a5.333 5.333 0 1010.667 0 5.333 5.333 0 00-10.667 0zm6.333 0v-65.777h-2v65.777h2z" fill="#C2BAB2"/><defs><filter id="filter0_d_1109_95911" x="290.931" y="362.396" width="91.812" height="95.812" filterUnits="userSpaceOnUse" color-interpolation-filters="sRGB"><feFlood flood-opacity="0" result="BackgroundImageFix"/><feColorMatrix in="SourceAlpha" values="0 0 0 0 0 0 0 0 0 0 0 0 0 0 0 0 0 0 127 0" result="hardAlpha"/><feMorphology radius="8" in="SourceAlpha" result="effect1_dropShadow_1109_95911"/><feOffset dy="8"/><feGaussianBlur stdDeviation="6"/><feComposite in2="hardAlpha" operator="out"/><feColorMatrix values="0 0 0 0 0.211765 0 0 0 0 0.192157 0 0 0 0 0.168627 0 0 0 0.12 0"/><feBlend in2="BackgroundImageFix" result="effect1_dropShadow_1109_95911"/><feBlend in="SourceGraphic" in2="effect1_dropShadow_1109_95911" result="shape"/></filter></defs></svg>