<svg width="496" height="502" fill="none" xmlns="http://www.w3.org/2000/svg"><g filter="url(#filter0_d_1109_95894)"><path d="M274.381 83.503h-63.054c-5.732 0-10.379 4.647-10.379 10.38v63.054c0 5.732 4.647 10.378 10.379 10.378h63.054c5.733 0 10.379-4.646 10.379-10.378V93.882c0-5.732-4.646-10.379-10.379-10.379z" fill="#F6F5F4"/></g><path d="M263.273 125.887c0-1.423-.121-2.847-.364-4.235h-19.647v8.018h11.246a9.643 9.643 0 01-4.165 6.335v5.207h6.717c3.94-3.627 6.213-8.99 6.213-15.325z" fill="#635C50"/><path d="M243.262 146.228c5.623 0 10.361-1.84 13.798-5.033l-6.717-5.207c-1.875 1.267-4.27 1.996-7.081 1.996-5.433 0-10.049-3.662-11.698-8.591h-6.925v5.363a20.847 20.847 0 0018.605 11.472h.018z" fill="#635C50"/><path d="M231.581 129.393a12.513 12.513 0 010-7.967v-5.363h-6.925a20.884 20.884 0 000 18.71l6.925-5.363v-.017z" fill="#635C50"/><path d="M243.262 112.818a11.3 11.3 0 017.984 3.124l5.953-5.953a19.96 19.96 0 00-13.937-5.415 20.81 20.81 0 00-18.606 11.472l6.925 5.363c1.649-4.929 6.266-8.609 11.698-8.609l-.017.018z" fill="#635C50"/><path d="M237.529 167.466a5.333 5.333 0 1110.668 0 5.333 5.333 0 01-10.668 0zm6.333 0v57.852h-2v-57.852h2z" fill="#C2BAB2"/><defs><filter id="filter0_d_1109_95894" x="196.948" y="83.503" width="91.812" height="95.812" filterUnits="userSpaceOnUse" color-interpolation-filters="sRGB"><feFlood flood-opacity="0" result="BackgroundImageFix"/><feColorMatrix in="SourceAlpha" values="0 0 0 0 0 0 0 0 0 0 0 0 0 0 0 0 0 0 127 0" result="hardAlpha"/><feMorphology radius="8" in="SourceAlpha" result="effect1_dropShadow_1109_95894"/><feOffset dy="8"/><feGaussianBlur stdDeviation="6"/><feComposite in2="hardAlpha" operator="out"/><feColorMatrix values="0 0 0 0 0.211765 0 0 0 0 0.192157 0 0 0 0 0.168627 0 0 0 0.12 0"/><feBlend in2="BackgroundImageFix" result="effect1_dropShadow_1109_95894"/><feBlend in="SourceGraphic" in2="effect1_dropShadow_1109_95894" result="shape"/></filter></defs></svg>