<svg width="496" height="502" fill="none" xmlns="http://www.w3.org/2000/svg"><g filter="url(#filter0_d_1109_95902)"><path d="M86.433 14.08H23.38C17.647 14.08 13 18.725 13 24.457v63.055c0 5.732 4.647 10.378 10.379 10.378h63.054c5.732 0 10.379-4.646 10.379-10.379V24.459c0-5.732-4.647-10.379-10.379-10.379z" fill="#F6F5F4"/></g><path d="M40.214 40.651v16.627h3.974V40.651l.85-4.2 2.726-3.766 3.228-1.979 3.853-.711c1.51 0 4.235.885 4.235.885l3.054 2.013 2.343 3.246 1.007 4.53v17.72h3.975V40.651l-1.441-6.335-3.072-4.235-4.495-2.933s-3.628-1.11-5.624-1.11l-4.096.572-4.27 2.031-4.685 5.363-1.58 6.647h.018z" fill="#635B4F"/><path d="M66.387 83.4H32.369l-2.343-2.882v-5.78l-.573-5.24.573-5.642V53.634l3.176-2.83h33.185V83.4z" fill="#995F39"/><path d="M76.419 83.4H46.653l-2.777-2.743.191-6.422-.625-9.615.365-11.038 2.36-2.76H75.95l2.326 2.222-.538 11.212.902 11.61-.156 5.71-2.048 1.84-.017-.017z" fill="#D9A37E"/><path d="M78.154 83.4H65.258L61.18 50.804h16.488l2.326 2.221-.538 11.212.902 11.611-.156 5.71-2.048 1.84z" fill="#FCE5BF"/><path d="M68.296 62.45c0-1.492-.59-2.915-1.65-3.974a5.609 5.609 0 00-3.974-1.649c-.746 0-1.475.139-2.152.434a5.59 5.59 0 00-3.037 3.037 5.556 5.556 0 00.469 5.19 5.63 5.63 0 002.395 2.065l-1.111 3.332-.347 2.344-.886 1.353-.937 2.812h11.247l-.642-1.892-.938-3.68-.642-1.058-1.076-3.21a5.547 5.547 0 002.395-2.066c.59-.903.903-1.961.903-3.038h-.017z" fill="#995F39"/><path d="M60.333 97.634a5.333 5.333 0 10-10.666 0 5.333 5.333 0 0010.666 0zm-6.333 0v84h2v-84h-2z" fill="#C2BAB2"/><defs><filter id="filter0_d_1109_95902" x="9" y="14.079" width="91.812" height="95.812" filterUnits="userSpaceOnUse" color-interpolation-filters="sRGB"><feFlood flood-opacity="0" result="BackgroundImageFix"/><feColorMatrix in="SourceAlpha" values="0 0 0 0 0 0 0 0 0 0 0 0 0 0 0 0 0 0 127 0" result="hardAlpha"/><feMorphology radius="8" in="SourceAlpha" result="effect1_dropShadow_1109_95902"/><feOffset dy="8"/><feGaussianBlur stdDeviation="6"/><feComposite in2="hardAlpha" operator="out"/><feColorMatrix values="0 0 0 0 0.211765 0 0 0 0 0.192157 0 0 0 0 0.168627 0 0 0 0.12 0"/><feBlend in2="BackgroundImageFix" result="effect1_dropShadow_1109_95902"/><feBlend in="SourceGraphic" in2="effect1_dropShadow_1109_95902" result="shape"/></filter></defs></svg>