<svg width="496" height="502" fill="none" xmlns="http://www.w3.org/2000/svg"><g filter="url(#filter0_d_1109_95885)"><path d="M180.416 397.108h-63.055c-5.732 0-10.379 4.647-10.379 10.379v63.055c0 5.732 4.647 10.378 10.379 10.378h63.055c5.732 0 10.378-4.646 10.378-10.378v-63.055c0-5.732-4.646-10.379-10.378-10.379z" fill="#F6F5F4"/></g><path d="M125.849 432.567a1.87 1.87 0 01-.92-.243c-.85-.486-1.163-1.562-.677-2.413v-.034c2.326-3.853 9.338-12.826 24.628-12.826 6.63 0 12.445 1.735 17.27 5.172 3.974 2.811 6.196 6.005 7.272 7.549.555.799.364 1.91-.434 2.465h-.035a1.828 1.828 0 01-2.534-.451c-1.926-2.76-7.775-11.16-21.521-11.16s-19.491 7.741-21.452 11.056a1.83 1.83 0 01-1.58.902l-.017-.017z" fill="#7E7467"/><path d="M156.587 467.695c-.156 0-.313 0-.452-.052-11.09-2.742-15.238-13.85-15.412-14.301l-.034-.104c-.087-.313-2.326-7.932 1.093-12.393 1.562-2.03 3.957-3.072 7.099-3.072 2.933 0 5.033.903 6.491 2.795 1.197 1.544 1.666 3.436 2.135 5.259.972 3.801 1.666 5.797 5.71 6.005 1.77.087 2.933-.955 3.592-1.84 1.788-2.412 2.1-6.335.747-9.806-1.736-4.478-7.88-12.913-18.71-12.913-4.617 0-8.869 1.493-12.271 4.27-2.811 2.308-5.05 5.571-6.126 8.938-1.996 6.248.624 16.072.642 16.158.26.938-.313 1.91-1.25 2.17h-.052a1.829 1.829 0 01-2.239-1.25c-.121-.451-2.916-10.917-.607-18.154 2.516-7.828 10.257-15.707 21.92-15.707 5.381 0 10.483 1.839 14.718 5.293 3.298 2.691 5.971 6.301 7.377 9.911 1.787 4.616 1.301 9.788-1.215 13.173-1.684 2.256-4.079 3.436-6.735 3.297-6.907-.347-8.157-5.172-9.059-8.695-.938-3.61-1.528-5.346-5.086-5.346-1.961 0-3.332.538-4.182 1.649-1.163 1.528-1.25 3.905-1.129 5.641.087 1.198.295 2.395.608 3.558.278.712 3.992 9.806 12.861 11.993a1.774 1.774 0 011.319 2.135c-.226.815-.938 1.371-1.771 1.371l.018.017z" fill="#7E7467"/><path d="M142.337 466.879a1.91 1.91 0 01-1.337-.555c-4.443-4.669-6.959-9.875-7.896-16.384v-.035c-.539-4.321.242-10.431 4.061-14.631 2.811-3.107 6.769-4.669 11.715-4.669 5.866 0 10.483 2.725 13.347 7.88 2.083 3.732 2.499 7.463 2.516 7.619a1.808 1.808 0 01-1.631 1.962 1.839 1.839 0 01-2.013-1.597 18.453 18.453 0 00-2.135-6.37c-2.222-3.94-5.623-5.936-10.101-5.936-3.871 0-6.908 1.163-8.991 3.472-3.002 3.315-3.592 8.435-3.176 11.802.833 5.762 3.037 10.344 6.96 14.44.677.694.642 1.805-.052 2.482l-.035.034c-.33.313-.781.469-1.232.486z" fill="#7E7467"/><path d="M162.8 461.742c-3.888 0-7.186-1.076-9.824-3.211-5.311-4.269-5.901-11.246-5.935-11.541a1.838 1.838 0 011.683-1.962c1.007-.086 1.875.677 1.961 1.684 0 .104.538 5.797 4.634 9.077 2.43 1.927 5.658 2.708 9.65 2.256a1.814 1.814 0 012.014 1.58 1.776 1.776 0 01-1.58 1.961h-.034c-.851.104-1.719.156-2.569.156zm3.072-47.486c-1.51-.989-6.891-3.922-16.992-3.922-10.604 0-16.002 3.245-17.182 4.061a1.105 1.105 0 00-.226.174h-.034a1.761 1.761 0 00-.608 1.336c0 .989.833 1.788 1.822 1.77a1.91 1.91 0 001.059-.329c.052-.035 4.686-3.437 15.152-3.437s15.134 3.402 15.169 3.419c.312.243.712.365 1.094.365.989 0 1.805-.781 1.822-1.771 0-.729-.434-1.388-1.111-1.666h.035z" fill="#7E7467"/><path d="M143.547 396.431a5.333 5.333 0 1010.666 0 5.334 5.334 0 10-10.666 0zm6.333 0v-50.157h-2v50.157h2z" fill="#C2BAB2"/><defs><filter id="filter0_d_1109_95885" x="102.982" y="397.108" width="91.812" height="95.812" filterUnits="userSpaceOnUse" color-interpolation-filters="sRGB"><feFlood flood-opacity="0" result="BackgroundImageFix"/><feColorMatrix in="SourceAlpha" values="0 0 0 0 0 0 0 0 0 0 0 0 0 0 0 0 0 0 127 0" result="hardAlpha"/><feMorphology radius="8" in="SourceAlpha" result="effect1_dropShadow_1109_95885"/><feOffset dy="8"/><feGaussianBlur stdDeviation="6"/><feComposite in2="hardAlpha" operator="out"/><feColorMatrix values="0 0 0 0 0.211765 0 0 0 0 0.192157 0 0 0 0 0.168627 0 0 0 0.12 0"/><feBlend in2="BackgroundImageFix" result="effect1_dropShadow_1109_95885"/><feBlend in="SourceGraphic" in2="effect1_dropShadow_1109_95885" result="shape"/></filter></defs></svg>