<svg width="496" height="502" fill="none" xmlns="http://www.w3.org/2000/svg"><g filter="url(#filter0_d_1109_95868)"><path d="M462.329 48.791h-63.055c-5.732 0-10.378 4.647-10.378 10.38v63.053c0 5.733 4.646 10.379 10.378 10.379h63.055c5.732 0 10.379-4.646 10.379-10.379V59.17c0-5.732-4.647-10.379-10.379-10.379z" fill="#F6F5F4"/></g><path d="M446.205 101.363a21.033 21.033 0 01-2.048 3.696c-1.076 1.545-1.961 2.604-2.638 3.194-1.058.972-2.187 1.475-3.401 1.493-.868 0-1.927-.243-3.142-.747-1.232-.503-2.343-.746-3.384-.746-1.076 0-2.239.243-3.472.746-1.232.504-2.238.764-3.002.781-1.163.052-2.326-.468-3.471-1.544-.747-.643-1.666-1.753-2.76-3.315-1.18-1.667-2.169-3.61-2.933-5.815-.816-2.377-1.232-4.686-1.232-6.925 0-2.551.555-4.773 1.666-6.612a9.789 9.789 0 013.471-3.524 9.206 9.206 0 014.704-1.319c.919 0 2.134.278 3.644.85 1.493.556 2.465.851 2.881.851.313 0 1.389-.33 3.194-1.006 1.718-.625 3.159-.868 4.339-.764 3.211.26 5.623 1.527 7.237 3.8-2.881 1.737-4.287 4.184-4.269 7.308.017 2.43.902 4.46 2.655 6.074a8.808 8.808 0 002.638 1.736 26.494 26.494 0 01-.677 1.77v.018zm-7.376-28.985c0 1.91-.694 3.697-2.083 5.346-1.683 1.961-3.714 3.09-5.901 2.916a4.894 4.894 0 01-.052-.73c0-1.84.799-3.8 2.222-5.397.711-.816 1.614-1.493 2.69-2.03 1.093-.539 2.117-.816 3.089-.868.035.26.035.503.035.763z" fill="#635C50"/><path d="M425.477 131.754a5.333 5.333 0 1110.666 0 5.333 5.333 0 01-10.666 0zm6.334 0v93.564h-2v-93.564h2z" fill="#C2BAB2"/><defs><filter id="filter0_d_1109_95868" x="384.896" y="48.791" width="91.812" height="95.812" filterUnits="userSpaceOnUse" color-interpolation-filters="sRGB"><feFlood flood-opacity="0" result="BackgroundImageFix"/><feColorMatrix in="SourceAlpha" values="0 0 0 0 0 0 0 0 0 0 0 0 0 0 0 0 0 0 127 0" result="hardAlpha"/><feMorphology radius="8" in="SourceAlpha" result="effect1_dropShadow_1109_95868"/><feOffset dy="8"/><feGaussianBlur stdDeviation="6"/><feComposite in2="hardAlpha" operator="out"/><feColorMatrix values="0 0 0 0 0.211765 0 0 0 0 0.192157 0 0 0 0 0.168627 0 0 0 0.12 0"/><feBlend in2="BackgroundImageFix" result="effect1_dropShadow_1109_95868"/><feBlend in="SourceGraphic" in2="effect1_dropShadow_1109_95868" result="shape"/></filter></defs></svg>