<svg width="496" height="502" fill="none" xmlns="http://www.w3.org/2000/svg"><path d="M450.5 288h15l17.499-30.718-4.46-5.71-5.832-7.446-7.064-9.126h-69.666v70.046h13.572V279H423v14.99h14v9.51h13.5V288z" fill="#E6A859"/><path d="M409.549 305.063h-13.572v8.678h13.572v-8.678zM437 302.5v-8.493h-14V279h-13.5v9H423v14.5h14zm33.63-23.5H450.5v9h15l17.5-30.7-12.37 21.7zm-20.13 24.5H437v8.5h13.5v-8.5z" fill="#BA8143"/><path d="M478.873 252h-82.895v11.01L481.5 260l1.5-2.701-4.127-5.299z" fill="#BA8143"/><path d="M395.978 260H481.5l-1.737 3.018h-83.785V260z" fill="#FFC88D"/></svg>