<svg width="496" height="502" fill="none" xmlns="http://www.w3.org/2000/svg"><path d="M51.089 193.006l17.53-9.389S83.161 180.677 90 180v37c-4.027.816-11.75 4.863-15.116 6.685l-.035.035-9.349 7.145-5.126 7.5-2.794 8.525-1.337 10.257.295 1.267 2.17 9.338 1.666 7.098.937 1.111 8.557 10.153 2.707 3.229S84.238 294.837 90 296v38c-5.884-.59-18.709-3.35-18.709-3.35s-10.327-4.148-15.048-6.977l-10.448-7.515a39.315 39.315 0 01-3.037-2.933c-2.83-2.986-5.832-6.787-8.435-10.275a287.264 287.264 0 01-4.513-6.3c-1.527-2.222-2.482-3.68-2.482-3.68L22.5 281.865 20 267.752v-16.387l1.5-13 2.843-10.636s4.46-9.459 7.359-13.746L41.5 201.5c2.898-2.864 9.589-8.494 9.589-8.494z" fill="#E6A859"/><path d="M74.884 223.685l-.035.035-9.349 7.145-5.126 7.5-2.794 8.525 9.92-10.525 9-5.5 8-2.5L90 228v-11l-4 .5-3 1.5s-6.445 3.78-8.116 4.685zM29.81 296.65c-1.527-2.222-2.482-3.68-2.482-3.68L22.5 281.865l-2.5-14 1.5 14.5 2 8.5 3 8 5 9 6.5 8.293 6.5 7.207 9.5 7.285 13.5 7.215L80 342l10 1v-9c-5.884-.59-18.71-3.35-18.71-3.35s-10.326-4.148-15.047-6.977l-10.448-7.515a39.315 39.315 0 01-3.037-2.933c-2.83-2.986-5.832-6.787-8.435-10.275a287.264 287.264 0 01-4.513-6.3z" fill="#BA8143"/></svg>