<svg width="544" height="393" fill="none" xmlns="http://www.w3.org/2000/svg"><path d="M19.5 68.5C15.9 68.1 5 66 0 65v246c27.333-.667 85.7-2.1 100.5-2.5 14.8-.4 61.5-1.167 83-1.5l.5-16.5c-3.2-11.6-1-23.167.5-27.5-.167-1.167-.5-3.6-.5-4-2.4-5.6-2.667-13.333-2.5-16.5-24.4-7.2-38.833-25.667-43-34 3.2-26.8-6-45.167-11-51V154l2.5-7.5-6 1.5c8-6.4 7.667-17.333 6.5-22 13-1 18.958-13.699 18.5-13.5 10.5-4.5 16-10.5 16-24s-11-22-24.5-22.5-31.5 1.5-36.5 1.5-6-1-17-1.5c-8.8-.4-19.667.833-24 1.5-4.5.167-13.8.5-15 .5-1.5 0-24 1-28.5.5z" fill="#ECE9E4"/></svg>