<svg width="545" height="395" fill="none" xmlns="http://www.w3.org/2000/svg"><path d="M25.765 118.296l9.919 21.313-9.92 33.628-12.752-30.312 12.753-24.629zm422.734-79.571l4.251 12.315 24.088 4.262-11.335-16.577h-17.004zm-310.793.185l-5.928 9.967-20.522 4.53 2.736-12.231 12.769-8.608 10.945 6.342z" fill="#E2DFD9"/><path d="M32.85 190.762l30.228 21.787L70 226h41.5c36.842 7.262-10.546-69.484-4.5-71 3.242-.813 123.711-77.81 201.5-65.596C516.882 139.609 435.273 199 435.273 199l42.037 41.019 34.48-34.101 12.281-43.574-12.281-38.838V89.404L483.45 62.88l-40.62-4.736-7.557-22.734L371.981.36 292.63 7.94l-33.063 11.367L214.223.361l-41.565 18.945-32.118 38.838-39.675 13.262-60.458 35.996 6.612 32.207-14.17 51.153z" fill="#E2DFD9"/><path d="M351.711 365.069L339.6 378.467l-.014.014-16.458-.288-24.853-4.849-43.907.316s-76.71 20.708-78.001 20.391c-1.292-.316-38.298 0-38.298 0l-19.801-7.77H89.541l8.394-6.476 15.497-2.59 24.652-4.202v-5.498l-14.966-6.792s-16.459 3.238-18.152 3.238c-1.693 0-41.44-.345-41.44-.345l-21.394-7.397H5.241l7.375-5.181h19.93l12.542-5.18h27.88l14.75-6.663-11.235-13.326H65.004l-12.54-8.879H36.965l-14.018-6.288H.52l11.22-10.433 19.745-.662 4.821-1.339 19.128-6.295 56.075-8.145s202.608-6.8 205.549-5.318c2.942 1.483 58.189 0 58.189 0l34.092 19.935 66.718 1.367 35.788 22.891h16.316l16.558 12.578-12.728.448-12.727 7.629h-7.419l-9.068-4.055h-16.152l-10.853 5.834-4.953 4.487 14.438 4.039h16.078l14.809 7.06-10.307 7.181h-16.146l-4.434 5.9-32.415.259-33.246-8.994-25.828-3.698-42.057 3.698z" fill="#EB9A75"/><path d="M129.475 321.336l-7.548 7.57h-10.561l-7.72 6.936h12.914l13.862 6.951h26.301l7.72-4.519 10.633 5.569h28.454l4.577-3.871 4.821 4.835h20.749l21.236-4.115h33.29l10.13 4.115 49.949 4.317 15.597 4.116h30.363l13.875-4.591s25.814-4.806 26.546-4.806c.731 0 5.797-3.151 5.797-3.151h8.925l-8.538-15.758-21.38-11.354s-178.774-3.382-179.505-3.382c-.732 0-110.473 11.124-110.473 11.124l-.014.014z" fill="#AB5A34"/><path d="M534.338 176.853l-7.102 38.207-33.563 19.6s-27.449 39.386-28.741 40.681c-1.291 1.296-30.018 32.12-30.018 32.12l-15.64 10.476-11.479-30.882 6.787-29.414 25.943-40.797 3.429-5.396 37.121-10.707 53.263-23.888z" fill="#7A6A2F"/><path d="M534.339 176.853l-7.591 11.455-30.204 14.563-3.186 9.368-7.92-1.914-30.377 12.793s-9.184-3.899-14.536-6.274l3.43-5.396 37.12-10.707 53.264-23.888z" fill="#95853C"/><path d="M544.999 240.056l-35.513 24.737-25.828 34.508-51.47 26.09H422l-3.874-7.454 2.913-25.068s1.894-1.497 4.835-3.842c10.188-8.088 33.032-26.177 34.036-26.68 1.291-.648 37.637-19.471 37.637-19.471l47.452-2.82z" fill="#605425"/><path d="M545 240.056l-24.838 8.246-21.28 5.641-14.679 15.34h-7.447l-3.831 6.778-33.605 19.6-13.445-6.634c10.188-8.088 33.031-26.177 34.036-26.68 1.291-.648 37.637-19.471 37.637-19.471l47.452-2.82z" fill="#95853C"/><path d="M165.524 289.156l-3.874 7.454h-34.969l-26.689-26.09-25.828-34.508-35.514-24.737 47.467 2.82s36.331 18.823 37.623 19.471c.574.288 8.337 6.375 16.788 13.038a7449.06 7449.06 0 0122.083 17.484l2.913 25.068z" fill="#7A6A2F"/><path d="M140.528 246.604c-.186.431-.316.705-.373.791-.646.82-35.958-17.24-38.068-17.873-2.109-.648-20.433-6.62-20.433-6.62l-11.063-6.605h-13.2l-18.74-5.022 47.466 2.82s36.331 18.823 37.623 19.471c.574.288 8.337 6.375 16.788 13.038z" fill="#95853C"/><path d="M156.743 286.005l-6.371 12.505.643 26.881-49.157-12.057-24.852-37.993-27.435-15.009-2.583-20.276 12.584 7.339 32.285 2.691 64.886 35.919z" fill="#605425"/><path d="M156.743 286.005l-6.371 12.505-30.492-14.419-16.099-17.701-18.697-3.899-2.855-4.433h-9.6l-17.907-5.986-7.734-12.016 12.584 7.339 32.285 2.691 64.886 35.919z" fill="#95853C"/><path fill-rule="evenodd" clip-rule="evenodd" d="M135.597 327.186h294.834l76.738-186.683-33.208-28.721-48.017-27.823L380.17 65.56l-41.734-11.219-45.325-5.385-55.646 5.385-46.671 7.629-38.144 17.053-44.428 24.681-24.232 18.848-22.887 22.438 74.494 182.196zm275.683-28.213l62.088-149.013-31.037-21.514-46.505-22.247-38.139-13.01-39.144-8.749-50.107-.993-48.873 5.742-33.404 8.764-32.902 16.002-31.668 20.248-25.183 24.247 27.923 65.506 14.464 8.764-4.993 13.743 22.685 52.51H411.28z" fill="#A79D90"/><path d="M146.527 313.724l9.973-14.75h254.794l9.227 14.75H245.506l-9.484-3.871-7.978 3.871h-29.416l-9.04-7.57-10.905 7.57h-32.156z" fill="#C2BBB2"/><path d="M156.5 298.973l-22.686-52.51 4.979-13.743-14.464-8.764-27.908-65.506-16.96-9.742 30.663 85.508 8.724 4.504-1.248 14.247 28.927 60.757 9.973-14.751zM473.368 149.96L411.28 298.973l9.227 14.751 38.154-86.76-2.253-11.757 9.972-8.246 23.69-63.261-16.702 6.26z" fill="#635B4F"/><path d="M473.368 149.96l-31.037-21.513-46.505-22.248-38.139-13.01-39.144-8.748-50.107-.993-48.872 5.741-33.405 8.764-32.902 16.002-31.668 20.248-25.182 24.248-16.947-9.743 20.692-19.254 25.426-19.255 13.718 1.497 5.725-12.246 30.922-14.75 57.08-16.003 54.856-4.26 59.089 8.505 30.162 8.002 32.414 12.246 4.233 10.505 7.978-4.749 23.188 12.246 1.994 10.764 10.217-2 15.21 9.743L490.07 143.7l-16.702 6.26z" fill="#36312B"/><path fill-rule="evenodd" clip-rule="evenodd" d="M411.874 298.526l62.088-149.013-31.037-21.514-46.505-22.248-38.14-13.009-39.144-8.75L269.03 83l-48.873 5.742-33.404 8.764-32.902 16.002-31.669 20.247L97 158.003l27.923 65.505 14.464 8.764-4.994 13.743 22.686 52.511h254.795zM205.019 129.079l-29.028 10.922-14.765 3.252-16.057 16.765s-7.303 1.813-6.428 2.461c.875.647 11.092 19.614 11.092 19.614l6.543 8.908 23.862-15.384 18.051-10.447 16.86-7.814 20.376-4.778 25.569-4.346 19.974-2.043 20.548 2.043 21.48 2.447 15.11 5.151 11.795 4.188 15.339 4.691L381.5 172l8.5 3.617 9.5 4.383 2-1.5 6-13.33v-2.691l4-5.123-37.422-18.276-40.363-18.233-48.213-5.914s-35.342 4.504-36.059 4.504c-.717 0-39.89 5.684-39.89 5.684l-4.534 3.943v.015z" fill="#F6F5F4"/><path opacity=".5" d="M280.446 286.842l4.448-1.899 8.552 4.274 37.064-2.375 27.378 6.318 53.406 5.813H156.5l-22.686-52.51 4.979-13.758-14.464-8.749-27.923-65.505 15.54 13.426 13.488 6.188 1.55 21.168 20.892 21.111h39.503l8.351 6.404h12.426l6.974 6.993h-37.021s-8.724 10.304-8.164 11.426c.559 1.123 9.685 11.009 9.685 11.009h23.518l8.897-4.317h13.904l6.127 6.145h12.613l4.261 7.195h-28.196l-27.263 9.124 10.949 5.626h30.606l16.315 6.879h29.071l.014.014z" fill="#C2BBB2"/><path d="M380.931 232.116h25.527v11.282h-7.074v-4.648h-7.806v6.965h6.773v6.346h-6.773v7.152h3.487v5.986h-14.119v-5.986h3.415v-20.478h-3.415v-6.634l-.015.015zm-213.77.82h24.967v10.735h-6.744v-4.461h-8.05v6.202h6.228v6.015h-6.228v7.282h8.05v-5.583h6.744v11.267h-24.967v-5.684h3.286v-19.513h-3.286v-6.275.015z" fill="#36312B"/><path d="M259.295 248.664l1.607 8.951 5.984 9.282 8.007 5.396 10.001 2.044 8.021-1.295 7.662-4.087 7.347-9.095 2.569-11.196-2.182-10.39-8.336-10.346-15.081-4.936-9.901 1.986-8.867 6.231-5.654 9.742-1.177 7.713z" fill="#C2BBB2"/><path d="M304.466 185.98c-2.784-1.051-5.194-.49-7.404.892l-2.755-12.347a3.351 3.351 0 00-1.607-2.188 3.481 3.481 0 00-1.32-.431 3.2 3.2 0 00-1.378.144l-11.852 3.755a5.018 5.018 0 00-2.238 1.44 5.251 5.251 0 00-1.234 2.36l-1.78 8.001c-3.874-2.85-6.873-2.173-8.466-1.367-3.242 1.64-4.663 5.526-3.63 9.929 1.335 5.699 6.586 11.426 15.296 11.426 7.863 0 13.058-6.188 17.233-11.153 4.004-4.763 6.615-7.627 9.643-6.504 1.693.633 2.382 1.928 2.037 3.857-.717 3.971-5.983 9.584-15.454 9.584v4.23c8.466 0 18.109-4.878 19.572-13.052.704-3.928-1.09-7.209-4.692-8.562l.029-.014zm-14.32 7.727c-3.989 4.749-8.122 9.656-14.034 9.656-6.414 0-10.245-4.115-11.206-8.188-.431-1.842-.316-4.303 1.435-5.181 1.793-.906 4.032.749 5.553 2.231l-1.005 4.533h4.305l3.501-15.7c.086-.36.259-.691.503-.95.243-.273.559-.475.903-.575l8.969-2.85a1.34 1.34 0 01.531-.057c.186.014.358.072.516.172.158.087.287.216.402.36.1.144.186.317.215.489l2.741 12.29c-1.134 1.18-2.224 2.475-3.301 3.77h-.028z" fill="#36312B"/><path d="M152.109 212.012l9.513-7.109 4.305-4.317-24.838-30.35s12.297-9.152 13.029-9.598c.732-.446 3.343-8.721 3.343-8.721l9.571 1.31 16.817-9.743 13.919-6.101 11.737 33.717 7.677-3.627 4.304-4.317-14.449-28.68 20.289-5.67 21.739-2.619 22.6-2.878v38.797h9.857l4.305-4.317-3.587-34.48s23.503-.59 23.934-.446c.43.144 23.733 5.972 23.733 5.972l16.229 5.655-7.82 38.063 7.82 2.475 4.304-4.317 4.965-33.745 24.006 8.288 25.441 10.318 14.908 7.239-19.715 44.553 9.972 4.648 4.305-4.317 18.926-48.367-19.701-11.483-34.05-13.513-8.997.668-5.639-5.46-28.64-10.793-33.003-6.475h-34.796l-35.715 4.403-31.611 8.937-24.048 9.44-27.249 13.8-20.046 14.29-4.304 4.317 26.66 44.538v.015z" fill="#36312B"/><path d="M156.413 207.695l9.514-7.109-20.534-34.667s12.297-9.152 13.029-9.598c.732-.446 3.344-8.721 3.344-8.721l9.57 1.31 16.817-9.742 13.919-6.102 11.737 33.717 7.677-3.627-10.145-32.997 20.29-5.67 21.738-2.619 22.6-2.878v38.797h9.858l.717-38.797s23.504-.59 23.934-.446c.431.144 23.733 5.972 23.733 5.972l16.229 5.655-7.82 38.063 7.82 2.475 9.27-38.062 24.005 8.289 25.441 10.318 14.909 7.238-19.716 44.553 9.973 4.648 23.231-52.684-19.701-11.483-34.051-13.513-9.412 2.475-5.223-7.267-28.641-10.793-33.003-6.475h-34.796l-35.714 4.403-31.611 8.937-24.049 9.44-27.249 13.8-24.35 18.607 26.66 44.539v.014z" fill="#C2BBB2"/><path d="M422.854 330.953h-21.701l-19.571 6.907h-29.501l-24.52-6.907 14.19-14.247h24.664l16.625-16.656h21.781l6.518 10.987 4.901 5.156h11.499l9.834 14.568-6.999.192h-7.72z" fill="#E28B64"/><path d="M335.345 323.131h14.798s8.424 4.096 8.376 4c-.048-.097 9.241-4 9.241-4h25.241l-5.317-5.316 3.635-5.686-3.091-4.433-6.102-1.237.929-6.393-16.624 16.673h-24.664l-6.406 6.425-.016-.033z" fill="#F5AE8E"/></svg>