<svg width="544" height="393" fill="none" xmlns="http://www.w3.org/2000/svg"><path d="M185.25 158.078l89.693 25.848.026-.012 2.647.772c1.397.557 3.725 2.229 3.725 2.229l3.347 4.233 1.427 5.164-.955 5.997-2.434 3.93-2.854 2.439-4.526 1.859-4.324.212s-2.358-.426-3.523-.88l-3.828-2.325-31.452-19.096-1.561-3.28-3.698.1-42.428-25.759-.078-.95.796-.481z" fill="#E2DFD9"/><path d="M276.452 195.4a4.454 4.454 0 00-5.852-2.334 4.456 4.456 0 00-2.351 5.845 4.455 4.455 0 005.852 2.333 4.454 4.454 0 002.351-5.844z" fill="#36312B"/><path d="M185.25 158.078l89.693 25.848.027-.012 2.646.771c1.397.558 3.726 2.23 3.726 2.23l3.346 4.233 1.428 5.164-.955 5.997-2.435 3.93-2.853 2.439-4.527 1.859 2.052-1.971s2.854-4.78 2.826-5.174c-.015-.4 1.785-6.508 1.785-6.508l-3.333-4.458-8.839-5.362-9.707-1.761-8.946-2.944-7.878-3.885-15.802-3.272-9.079-2.669-2.588-3.668-5.008-.729-9.49-2.898-8.382-4.185-7.707-2.975z" fill="#36312B"/><path d="M184.532 159.509l4.961 1.934 9.669 5.585 21.232 12.482 2.455.432 4.904 2.754 3.568 1.205 3.219 3.46 5.344 3.816 13.961 7.93 6.482 4.905 2.458.914 5.948 3.291 2.29 2.532s-2.359-.426-3.524-.88l-3.828-2.325-31.452-19.096-1.561-3.28-3.698.1-42.428-25.759z" fill="#fff"/></svg>